<svg id="Layer_1" data-name="Layer 1" xmlns="http://www.w3.org/2000/svg" viewBox="0 0 151 151"><title>MyLogo</title><path d="M213.14,179.33c0,9.12,27.14,13.76,38,13.76s32.39-1.89,32.39-11-14.08-18.58-34.51-18.58C235.6,163.5,213.14,170.21,213.14,179.33Z" transform="translate(-172.5 -163)" style="fill:#233140;stroke:#00fff2;stroke-miterlimit:10"/><ellipse cx="114.94" cy="31.12" rx="21.48" ry="18.92" style="fill:#233140;stroke:#00fff2;stroke-miterlimit:10"/><ellipse cx="127.26" cy="58.99" rx="23.24" ry="18.58" style="fill:#233140;stroke:#00fff2;stroke-miterlimit:10"/><ellipse cx="127.26" cy="87.2" rx="19.72" ry="16.51" style="fill:#233140;stroke:#00fff2;stroke-miterlimit:10"/><ellipse cx="127.26" cy="109.9" rx="19.72" ry="16.51" style="fill:#233140;stroke:#00fff2;stroke-miterlimit:10"/><ellipse cx="123.74" cy="124.35" rx="19.72" ry="16.51" style="fill:#233140;stroke:#00fff2;stroke-miterlimit:10"/><ellipse cx="95.57" cy="133.99" rx="19.72" ry="16.51" style="fill:#233140;stroke:#00fff2;stroke-miterlimit:10"/><ellipse cx="56.84" cy="131.92" rx="19.72" ry="16.51" style="fill:#233140;stroke:#00fff2;stroke-miterlimit:10"/><ellipse cx="29.73" cy="122.63" rx="20.07" ry="17.55" style="fill:#233140;stroke:#00fff2;stroke-miterlimit:10"/><ellipse cx="22.33" cy="109.9" rx="19.72" ry="16.51" style="fill:#233140;stroke:#00fff2;stroke-miterlimit:10"/><ellipse cx="37.12" cy="31.81" rx="25.35" ry="19.61" style="fill:#233140;stroke:#00fff2;stroke-miterlimit:10"/><ellipse cx="20.22" cy="56.92" rx="19.72" ry="16.51" style="fill:#233140;stroke:#00fff2;stroke-miterlimit:10"/><ellipse cx="19.51" cy="84.79" rx="19.01" ry="16.17" style="fill:#233140;stroke:#00fff2;stroke-miterlimit:10"/><path d="M249.55,165.52s26.4-1.25,29.74,11.4c0,0,28.43-5.68,25.55,27.71,0,0,19.29,4,16.66,18.79S310,236,310,236s5.4,9.11-1.23,17.49l-2.32,2.93s1.62-1.26,4.48,3.95c8.5,15.48,9.17,42.54-24.09,41.67,0,0-13.81,22.65-37.89-3.41" transform="translate(-172.5 -163)" style="fill:#233140"/><path d="M249.55,165.52s-28.06-2.39-31.25,10.34c0,0-28.66-5.54-25.34,28,0,0-19.34,4.13-16.51,19s11.69,12.59,11.69,12.59-5.31,9.19,1.46,17.56l2.37,2.93s3.75-1.15-4.46,4c-15.17,9.51-8.67,42.79,24.76,41.72,0,0,12.82,23.35,36.7-3" transform="translate(-172.5 -163)" style="fill:#233140"/><path d="M249.76,238s0,0-.07-.13a1,1,0,0,0-.05-.2.65.65,0,0,1,0-.2s0,0,0-.13,0-.17,0-.26a1.24,1.24,0,0,0-.06.26c0,.09,0,.13,0,.13s0,0,0-.13a1.52,1.52,0,0,1,0-.26l.19,21-.56,40.6c-.26-21,.32-51.74.35-51.72s.1,0,.11-.07a1.22,1.22,0,0,0,.05-.26,1.23,1.23,0,0,1,.05-.26,1.34,1.34,0,0,1,.07.26c0,.18.07.26.08.26s0,.13.08.13h0v-9Zm-.3.39a4.68,4.68,0,0,1,0-.92s.06.15.06.46S249.49,238.37,249.45,238.37Z" transform="translate(-172.5 -163)" style="fill:#233140;stroke:#233140;stroke-miterlimit:10"/><path d="M249.32,219.28l.1.54h0l.11,17.77c0-.18-.12-18.22-.14-18.58s0-.63-.05-.81,0-.22,0-.4v-.54h.07c0,.09,0,.2.07.34a2.21,2.21,0,0,1,.06.34v-3.62l0-.54c0-.18,0-.36,0-.54s0-.34,0-.74,0-.69,0-.87,0-.25,0-.47,0-.38,0-.47V210q0-.27,0-1.14c0-.58,0-1,0-1.14s0-.13,0-.13l0,.13q0,.14.05.4c0,.18,0,.36,0,.54v.94a3.63,3.63,0,0,1,0,.4q0,.54,0,.67t0,1.21c0,.72,0,1.16,0,1.34s0,.36,0,.54l0,.54,0,.8c0,.22,0,.41,0,.57V188.85l-.23-1.11c0,.18,0,.27-.09.27s-.07-.09-.09-.27,0-.38-.06-.87.19-21.08.19-21.35c0,.18-.26,20.59-.28,20.81V219Z" transform="translate(-172.5 -163)" style="fill:#233140;stroke:#233140;stroke-miterlimit:10"/><circle cx="76.49" cy="135.65" style="fill:#233140;stroke:#00adb4;stroke-miterlimit:10"/><circle cx="76.49" cy="135.65" style="fill:#233140;stroke:#00adb4;stroke-miterlimit:10"/><path d="M307.82,262.4a5.43,5.43,0,0,1,0-.59q-.08-.54-.21-1.77t-.12-1.45a.65.65,0,0,0-.17-.32c-.11-.14-.19-.21-.25-.21h-.5q-.5.22-1.58.59a10,10,0,0,0-1.25.48,2.41,2.41,0,0,0-.5.59c-.22.32-.36.48-.42.48a1.65,1.65,0,0,1-.83.05l-.83-.05a.23.23,0,0,0-.17.11,1,1,0,0,1-.25.21,2.72,2.72,0,0,1-.41.21h-2.49a1.59,1.59,0,0,0-.58.21,5.93,5.93,0,0,1-.91.38l-1,.32a3,3,0,0,1-.54.16h-2.91a1.2,1.2,0,0,0-.42.27c-.22.18-.39.31-.5.38s-.1.11-.12.11-.07,0-.12.11a.35.35,0,0,0-.08.21,2.73,2.73,0,0,0,0,1,8.37,8.37,0,0,1,.08,1,3.88,3.88,0,0,0-.87.27q-.71.27-1,.05c-.11,0-.25-.16-.41-.48a1.69,1.69,0,0,0-.42-.59h-1.25a1.28,1.28,0,0,0-.42.21,2.77,2.77,0,0,1-.42.21h-.91a3.27,3.27,0,0,1-.62-.11,1.07,1.07,0,0,1-.62-.32c-.06,0-.18-.18-.37-.54a2,2,0,0,0-.46-.64l-.87.05a1.8,1.8,0,0,1-.87-.05,2.78,2.78,0,0,1-.58-.21,2.93,2.93,0,0,0-.58-.21,2.32,2.32,0,0,0-.62.16,3.42,3.42,0,0,0-.62.27,5.19,5.19,0,0,1-.66.64,7.94,7.94,0,0,1-.66.54.22.22,0,0,1-.17.11l-.25-.11a3.46,3.46,0,0,1-.62-.8,3.64,3.64,0,0,0-.62-.8h-1.33a1.49,1.49,0,0,1-.58.27,2.79,2.79,0,0,1-.66.16.23.23,0,0,1-.17.11h-.42a1.46,1.46,0,0,1-.37-.05,1.42,1.42,0,0,0-.29-.05,2.78,2.78,0,0,1-.66-.16,3.2,3.2,0,0,1-.66-.27l-1.2-.8a7.11,7.11,0,0,1-1.2-.91h-.41c-.06.14-.14.32-.25.54a1.22,1.22,0,0,0-.17.54.48.48,0,0,1-.33-.16.5.5,0,0,1-.17-.38v-1.61a3.63,3.63,0,0,0-.33-.54l-.41-.54h-.42a1,1,0,0,0-.29.54,2.88,2.88,0,0,0-.12.54.48.48,0,0,1-.33-.16.5.5,0,0,1-.17-.38,2,2,0,0,1-.21-.54,2.79,2.79,0,0,1-.12-.54,6.24,6.24,0,0,1-.5-.86q-.33-.64-.42-.64a2.39,2.39,0,0,0-.46-.43,1,1,0,0,0-.37-.21c-.11,0-.21-.07-.29-.21a.74.74,0,0,1-.12-.32q-.08-.21-.21-.59a2,2,0,0,0-.21-.48.23.23,0,0,0-.17-.11c-.06,0-.08,0-.08.05s0,.05-.08.05h-.08c-.06,0-.15.07-.29.21a.63.63,0,0,0-.21.43.66.66,0,0,0-.17-.32.63.63,0,0,1-.17-.32v-.54a1.58,1.58,0,0,1,.17-.59,1.7,1.7,0,0,0,.17-.48c0-.07-.11-.18-.33-.32a1.84,1.84,0,0,1-.42-.32l-.08-.11v-.21c0-.07,0-.11.08-.11a2,2,0,0,1,.17-.64,2.68,2.68,0,0,1,.25-.54v-.21a.35.35,0,0,1,.08-.21h-.91a.6.6,0,0,0,0-.21.57.57,0,0,1,0-.21v-.21a.47.47,0,0,1,.21-.38.64.64,0,0,1,.29-.16.22.22,0,0,0,.17-.11c.05-.07.1-.11.12-.11s.07,0,.12-.11l.33-.21-.33-1-1.74,1v-.54q.08-.64.25-2.09a12.07,12.07,0,0,1,.25-1.66,4.33,4.33,0,0,1,.17-.86,5.61,5.61,0,0,0,.17-.75v-2.25a12.32,12.32,0,0,1,.21-1.34,11.47,11.47,0,0,1,.29-1.34v-1.61c0-.07-.08-.18-.25-.32s-.25-.25-.25-.32v-.43a3.6,3.6,0,0,1,.21-.86c.14-.43.23-.71.29-.86a.61.61,0,0,0,0-.21.57.57,0,0,1,0-.21.87.87,0,0,0,.25-.05.92.92,0,0,1,.25-.05,5.21,5.21,0,0,0,.66.32,2.8,2.8,0,0,0,.58.21q.08,0,.25-.16a.5.5,0,0,0,.17-.38,10.56,10.56,0,0,1-.46-1.13l-.37-1a.16.16,0,0,1,0-.21.35.35,0,0,0,.08-.21h.17c.06,0,.08,0,.08-.05s0-.05.08-.05a5.09,5.09,0,0,0,.62.54q.54.43.71.54c0,.07.11.11.33.11h.25v-2.47a1.31,1.31,0,0,1,.5.16c.22.11.39.13.5.05l.5-.64q.08-.21.37-1.07a4.57,4.57,0,0,1,.46-1.07q0-.11.12-.8a2.34,2.34,0,0,1,.29-.91,2.74,2.74,0,0,0,.42-.21.55.55,0,0,1,.25-.11.22.22,0,0,0,.17-.11,2.62,2.62,0,0,0-.25-.8,2.61,2.61,0,0,1-.25-.8,4.27,4.27,0,0,1,0-.54,4.17,4.17,0,0,0,0-.43h.17a.15.15,0,0,0,.12-.05.15.15,0,0,1,.12-.05,1.38,1.38,0,0,0,.21.21,1.61,1.61,0,0,1,.21.21,4.29,4.29,0,0,0,.17.86c.11.43.19.72.25.86a.74.74,0,0,0,.12.32c.08.14.15.21.21.21l.5-.54v-3.11a1.62,1.62,0,0,1-.62-.27l-.62-.38a3.43,3.43,0,0,1-.37-1.07,1.9,1.9,0,0,1,0-1.18,5.33,5.33,0,0,0-.46.8q-.29.59-.37.8a2.92,2.92,0,0,1-.21.43c-.08.14-.15.21-.21.21A1,1,0,0,1,266,219a2.51,2.51,0,0,1-.12-.64,5.13,5.13,0,0,1,0-1.39c.05-.79.08-1.29.08-1.5a2,2,0,0,1,.58.16c.28.11.44.13.5.05s.14-.07.25-.21a1.71,1.71,0,0,0,.25-.43V214l-.5-.43v-1.18a1.31,1.31,0,0,0-.29-.48,2.33,2.33,0,0,0-.46-.48l-.25-.11-.17.11a4.16,4.16,0,0,1-.08,1.34,3.59,3.59,0,0,1-.33,1.23,3,3,0,0,1-1.25.8,2.38,2.38,0,0,1-1.33.27,6.73,6.73,0,0,1-.12.91c-.08.47-.18.7-.29.7s-.19.09-.42.05l-.42-.05a2,2,0,0,0-.46.59c-.19.32-.32.52-.37.59a1.3,1.3,0,0,1-.46.27,1.31,1.31,0,0,0-.46.27c-.06.14-.18.43-.37.86a2.07,2.07,0,0,1-.46.75.22.22,0,0,1-.17.11h-.42a.53.53,0,0,1-.25-.11.93.93,0,0,1-.25-.21l-.17-.21q-.17.22-.87,1.23a4.85,4.85,0,0,0-.79,1.45,2.68,2.68,0,0,0-.25.54,2.22,2.22,0,0,0-.17.54l-.25.32a1,1,0,0,1-.25.21,4.41,4.41,0,0,1-.17.86,5.45,5.45,0,0,0-.17.75,8,8,0,0,1-.46.86,7.9,7.9,0,0,0-.46.86,2,2,0,0,1-.12.59c-.08.25-.15.38-.21.38a8.43,8.43,0,0,0-.25,1.07c-.11.57-.19,1-.25,1.18a5.58,5.58,0,0,1-.08.59q-.08.48-.12,1c0,.36-.07.7-.12,1l0,.3v20a5.71,5.71,0,0,1,.17.89c.08.57.15,1,.21,1.18s.14.91.25,1.88.19,1.59.25,1.88a.51.51,0,0,0,.29.16,1.3,1.3,0,0,0,.29.05,1.46,1.46,0,0,0,.37-.05.52.52,0,0,0,.29-.16,2.62,2.62,0,0,0,.29-1,3.22,3.22,0,0,0,0-1.13h.5l.83,3.75h.91c-.06,0-.15.07-.29.21s-.21.25-.21.32,0,.25,0,.54,0,.5,0,.64v.64a1.16,1.16,0,0,0,.08.43,8.41,8.41,0,0,0,.21,1.55,5.19,5.19,0,0,0,.29,1.13,1.84,1.84,0,0,0,.58.32,2.18,2.18,0,0,0,.66.21,5.85,5.85,0,0,0,.58.54,6.52,6.52,0,0,1,.58.54c0,.07,0,.11.08.11h.33c.05,0,.08,0,.08-.11s.19-.43.42-.86a3.36,3.36,0,0,0,.33-.75c0-.07.07-.16.21-.27a1.73,1.73,0,0,0,.29-.27,7.31,7.31,0,0,1,.91,1.29q.66,1.07.83,1.39c0,.07,0,.25,0,.54s.05.59.08.91.05.61.08.86a1.08,1.08,0,0,0,.12.48,4.16,4.16,0,0,0,.58.48c.33.25.55.41.66.48a6.19,6.19,0,0,0,.83.38,3,3,0,0,0,.91.27h.83q.08,0,.42-.32c.22-.21.36-.32.41-.32a3.62,3.62,0,0,1,.62.8,7,7,0,0,1,.54.91c0,.07,0,.11.08.11h.33c.05,0,.08,0,.08-.11a.23.23,0,0,1,.17-.11.29.29,0,0,0,.25-.11,1.37,1.37,0,0,0,.33-.32c.17,0,.33.18.5.54a2.3,2.3,0,0,1,.21.64c.08.36.15.54.21.54a2.27,2.27,0,0,1,.79.43,6.54,6.54,0,0,0,.87.54l.25.11.17-.11c.11,0,.26-.14.46-.43l.37-.54.83,1a2.14,2.14,0,0,0,.46-.54q.29-.43.46-.43a1.23,1.23,0,0,0,.41-.27,3.23,3.23,0,0,0,.42-.38c.05,0,.14-.07.25-.21a.64.64,0,0,0,.17-.32,5.57,5.57,0,0,1,.46.8q.29.59.37.8l.29,1.13a5.38,5.38,0,0,1,.21,1.13l.75-.64c.05.14.14.43.25.86s.19.71.25.86a1.58,1.58,0,0,0,.33.54c.22.28.39.43.5.43a1.85,1.85,0,0,0,.54.32l.71.32h.33l.5-.64a4.4,4.4,0,0,0,1-.43c.58-.29.93-.47,1-.54a3.67,3.67,0,0,0,.62-.75,9.42,9.42,0,0,0,.62-1,2.87,2.87,0,0,0,.25-.54,2.57,2.57,0,0,1,.25-.54,1.12,1.12,0,0,0,.41-.11,1.09,1.09,0,0,1,.42-.11v-3.65l1.66-1c.11,0,.25.18.42.54a3.59,3.59,0,0,0,.17.8q.17.59.25.8c0,.07.07.18.21.32s.23.21.29.21a4.48,4.48,0,0,1,0-1.72.35.35,0,0,1,.08-.21c.05-.07.1-.11.12-.11s.07,0,.12-.11h.5a1.28,1.28,0,0,0,.37.27,1.14,1.14,0,0,0,.37.16.82.82,0,0,0,.21.38c.14.18.23.27.29.27a2.22,2.22,0,0,0,.66.21c.33.07.53.18.58.32a3.46,3.46,0,0,1,.29,1.29c.08.71.12,1.18.12,1.39a5.32,5.32,0,0,0,.83-.54q.58-.43,1.25-.86c.44-.29.87-.55,1.29-.8a8.91,8.91,0,0,1,.87-.48h1.66a3.4,3.4,0,0,0,.83.27,3.51,3.51,0,0,1,.83.27,2.68,2.68,0,0,0,.75-.7q.5-.59,1-1.34t1-1.39q.41-.64.58-1a6.07,6.07,0,0,0,.37-1.23c.14-.61-5.81-.6-5.67-1.28s6.34-2,6.42-2.64a12.38,12.38,0,0,0,.12-1.39h1.33C307.86,262.82,307.85,262.65,307.82,262.4Zm-52.5-19.62-.25.32h-.33l-.29-.32c-.14-.14-.21-.25-.21-.32v-.54a3.59,3.59,0,0,1,.21-.86q.21-.64.29-.64l.75,2A1.32,1.32,0,0,1,255.31,242.79Zm21.18,24.12c-.11.07-.17,0-.17-.27s.05-.34.17-.27.25.16.25.27S276.66,266.84,276.49,266.91Zm2.12,9s0,0,0,.11v.11a.76.76,0,0,1-.12.32c-.08.14-.15.21-.21.21s0,.11-.08.11h-.33c-.06,0-.08,0-.08-.11a7.64,7.64,0,0,1-.42-.75q-.33-.64-.41-.86h.83l.5.32c.22.14.33.25.33.32s.08,0,.08.11S278.64,275.92,278.61,275.92Zm.46-10.08v-.64l.42.64ZM281.6,276a.51.51,0,0,0,0,.27v.43l-.21,1.34c-.08.54-.15.8-.21.8h-.5v-.48a1.66,1.66,0,0,1,.08-.59,6.25,6.25,0,0,0,.21-.8,6,6,0,0,1,.21-.8.67.67,0,0,1,.5-.32A.27.27,0,0,1,281.6,276Zm.54-5.63a.76.76,0,0,1-.08.43,2.27,2.27,0,0,1-.42.59,2.91,2.91,0,0,1-.5.48.89.89,0,0,1-.29-.48,2,2,0,0,1-.12-.59.87.87,0,0,1,.42-.64,2.24,2.24,0,0,0,.54-.11,2.71,2.71,0,0,1,.46-.11Zm2.41,2.47c-.22,0-.33-.16-.33-.48s.11-.48.33-.48.33.16.33.48S284.77,272.81,284.55,272.81Zm8-4.29v.54a3.13,3.13,0,0,0-.21.32c-.08.14-.15.21-.21.21Zm.5,4.83q-.08,1-.08,1.18a.74.74,0,0,1-.12.32,1.2,1.2,0,0,1-.58.32h-.29c0-.14,0-.43,0-.86a3.42,3.42,0,0,1,.12-.86,1.58,1.58,0,0,1,.17-.59,2.76,2.76,0,0,1,.25-.48.53.53,0,0,1,.29-.16,1.41,1.41,0,0,1,.29-.05C293.1,272.31,293.07,272.7,293,273.34Zm.33-4.29c-.22,0-.33-.18-.33-.54s.11-.54.33-.54.42.18.42.54S293.63,269.06,293.35,269.06Zm1.33-1.61c-.17.07-.25,0-.25-.27s.08-.34.25-.27S295,267.3,294.68,267.45Zm4.57,6.54c-.22,0-.33-.2-.33-.59s.11-.59.33-.59.41.2.41.59S299.52,274,299.25,274Zm2.57-5.47a.26.26,0,0,1,0,.16.26.26,0,0,0,0,.16v.21a.64.64,0,0,1-.17.32c-.11.14-.19.21-.25.21s-.12-.07-.21-.21a.73.73,0,0,1-.12-.32.34.34,0,0,1-.08-.21l.08-.32a.75.75,0,0,1,.12-.32c.08-.14.15-.21.21-.21l-4.05-.37C297.22,267.83,301.82,268.38,301.82,268.52Z" transform="translate(-172.5 -163)" style="fill:#fff"/><path d="M281.22,286.6a2.6,2.6,0,0,1-.19-.68c0-.11,0-.51.06-1.19a4.08,4.08,0,0,0-.06-1.36,12,12,0,0,0-.12-1.28q-.13-.93-.31-2.13c-.12-.79-.25-1.53-.37-2.21a9.37,9.37,0,0,1-.19-1.53,2.87,2.87,0,0,0-.25-.76,7.16,7.16,0,0,1-.37-1.11,9.73,9.73,0,0,1-.56-2,12.53,12.53,0,0,1-.31-1.79.33.33,0,0,1-.25-.17H278c-.08,0-.12-.06-.12-.17l-.5-.34a.54.54,0,0,1-.37-.51c-.33,0-.5-.23-.5-.68a5,5,0,0,1-.37-.68,5.74,5.74,0,0,0-.37-.68,2.31,2.31,0,0,0-.81.26,2.31,2.31,0,0,1-.81.25,5.7,5.7,0,0,1,.75-1.7,5.62,5.62,0,0,0,.75-1.7q-.25-.85-.62-2.47c-.25-1.08-.42-1.73-.5-2v-1.19c0-.11-.15-.31-.44-.6s-.4-.43-.31-.43a2.29,2.29,0,0,0-.5-1.87,4.38,4.38,0,0,1-.75-1.53v-2.55a2,2,0,0,1-.25-.51,1.94,1.94,0,0,1-.12-.68v-.85a.86.86,0,0,1,.12-.51,2.08,2.08,0,0,1,.25-.51c0-.23,0-.62.06-1.19s.06-1,.06-1.19a.67.67,0,0,0-.5.34c-.08,0-.21.09-.37.26a.7.7,0,0,0-.25.43,2.17,2.17,0,0,0-.56.85q-.31.68-.44,1a9.44,9.44,0,0,1-.62-1,2.68,2.68,0,0,0-.62-.85l-.5-.68a.56.56,0,0,1-.12-.34v-.34a1,1,0,0,1,.06-.34,1,1,0,0,0,.06-.34,9.68,9.68,0,0,1,1.37-.94,9.55,9.55,0,0,0,1.37-.93.79.79,0,0,0-.19-.43l-.31-.43h-.37c-.42,0-.62-.23-.62-.68a3.76,3.76,0,0,0,.12-.85,1.77,1.77,0,0,0-.12-.85,12.28,12.28,0,0,0-1.12-.6q-.87-.42-.87-.6a5.26,5.26,0,0,1-.37-2,11.79,11.79,0,0,0-.25-2,2,2,0,0,1-.5-.51c-.08,0-.21-.11-.37-.34a.34.34,0,0,0-.25-.17q-.13-.34-.44-1.36c-.21-.68-.35-1.13-.44-1.36l-.25-.34-.25-.34a1.36,1.36,0,0,1-.44-.68,3.2,3.2,0,0,0-.31-.68v-1.19a1.37,1.37,0,0,1,.62-.34,1.34,1.34,0,0,0,.62-.34v-.51a6.2,6.2,0,0,0-1.06-1.36,6.07,6.07,0,0,1-1.06-1.36c-.08,0-.21-.17-.37-.51a2,2,0,0,1-.25-.68v-3.91a3.13,3.13,0,0,0-.5-.94,2.5,2.5,0,0,1-.5-1.11,10,10,0,0,1-.25-1.87,10.42,10.42,0,0,0-.25-1.87,2.65,2.65,0,0,1-.37-.68.5.5,0,0,1-.12-.25.54.54,0,0,0-.12-.25l-.12-.17a15.56,15.56,0,0,0-.19-1.62,15.36,15.36,0,0,1-.19-1.61v-1.19q-.13-.85-.44-2.13a9.51,9.51,0,0,1-.31-1.62l-.25-.51q-.13-.34-.44-1.11a4,4,0,0,1-.31-.94,2.07,2.07,0,0,1-.25-.68,2.22,2.22,0,0,0-.25-.68l-.62-2.13a8.15,8.15,0,0,1-.37-1.62h-1.12a2.59,2.59,0,0,1-.25-.42,3,3,0,0,0-.25-.43,10.21,10.21,0,0,1-.31-1.19,6.55,6.55,0,0,1-.19-1.19q0-.17-.06-1.11c0-.62-.06-1.11-.06-1.45s0-.6.06-1.11.06-.82.06-.93a3.25,3.25,0,0,1,.44-.94,8.73,8.73,0,0,0,.56-1.11,2.6,2.6,0,0,1,.19-.68c.12-.34.27-.51.44-.51a.65.65,0,0,1,.5-.43,3,3,0,0,1,.62-.08c0-.11,0-.17-.12-.17s-.21-.11-.37-.34a.56.56,0,0,1-.12-.34l-1,.08a2,2,0,0,1-1.12-.08.33.33,0,0,1-.25-.17.56.56,0,0,1-.12-.34,3.34,3.34,0,0,0-.44-.77,1.33,1.33,0,0,1-.31-.76l-4.28-2.33v34l0,.13a17.27,17.27,0,0,0,.81,2.81,13,13,0,0,1,.68,2.3q.25.68.69,2t.87,2.47q.43,1.19.75,2.21a5.92,5.92,0,0,0,.44,1.19,3.05,3.05,0,0,0,.5.93c.33.51.54.82.62.94a8.75,8.75,0,0,0,.12.94c.08.51.21.82.37.93a5.24,5.24,0,0,1,.56,1.28q.31.94.44,1.28a3,3,0,0,1,.62.68,1.7,1.7,0,0,1,.37.68,13.91,13.91,0,0,1,1.06,2,6,6,0,0,1,.69,2,4.12,4.12,0,0,1,.31,1.79q.06,1.45.06,1.79h-1.12c-.08,0-.56-.11-1.43-.34a10.64,10.64,0,0,0-1.56-.34,8.26,8.26,0,0,0-1.62.34,13.3,13.3,0,0,1-1.37.34h-2.91v11.73h1c.25,0,.66,0,1.25-.08l1-.09q.25,0,.81-.51a8.83,8.83,0,0,1,.81-.68h1a2.3,2.3,0,0,1,.56.68c.21.34.35.51.44.51H257a10.07,10.07,0,0,0,1.43-.6,6.88,6.88,0,0,1,1.56-.6,4.51,4.51,0,0,1,.93.43,3.25,3.25,0,0,1,1.06.76,9.39,9.39,0,0,0,.93,1,3.61,3.61,0,0,1,.81,1v1.36a11.51,11.51,0,0,0,.12,1.28,6.86,6.86,0,0,0,.25,1.28l.31.43c.12.17.23.25.31.25v.51c.08.23.19.6.31,1.11a5.36,5.36,0,0,1,.19,1.11l.25,1q.25,1.19.37,1.19.12.68.44,2t.62,2.64q.31,1.36.56,2.55a13.8,13.8,0,0,0,.37,1.53,3.55,3.55,0,0,1,.31.94q.19.76.44,1.53l.5,1.53a4.88,4.88,0,0,1,.25.94,4,4,0,0,0,.31.93,4.12,4.12,0,0,1,.31.94,10.43,10.43,0,0,1,.81,2,10.15,10.15,0,0,0,.81,2,10.74,10.74,0,0,0,.25,1.28,5.39,5.39,0,0,0,.37,1.28l.25.68a1.69,1.69,0,0,1,.12.51c0,.11.14.11.44,0s.48-.11.56,0a1.52,1.52,0,0,0,.37.34,1.5,1.5,0,0,1,.37.34v.68a.78.78,0,0,0-.37.17.82.82,0,0,1-.37.17v1c.08.11.21.31.37.6s.29.48.37.6a1.82,1.82,0,0,0,.5.85,1.54,1.54,0,0,0,.37.34c0,.23.21.17.62-.17l.5-.34a3.48,3.48,0,0,0,.75-.26,5.37,5.37,0,0,0,.87-.43c.08,0,.19-.17.31-.51a2.6,2.6,0,0,0,.19-.68q.12-.34,1.56-1.19a10.28,10.28,0,0,0,1.56-1v-1.36Q281.41,287.11,281.22,286.6Zm-29.7-41.66c0-.34.12-.51.37-.51s.37.17.37.51Q251.9,245.45,251.52,244.94Zm8.47,0q-.25.34-.5,0c0-.34.1-.51.31-.51S260.07,244.6,260,244.94Zm0-.68q-.37,0-.37-.76t.37-.77q.37,0,.37.77T260,244.26Z" transform="translate(-172.5 -163)" style="fill:#00fff2;stroke:#233140;stroke-miterlimit:10"/><path d="M198.59,213.78a.72.72,0,0,1,0,.54,2.32,2.32,0,0,1-.39.86c-.26.43-.42.68-.48.75v3.34a.47.47,0,0,0,.22.38.69.69,0,0,0,.3.16,1.31,1.31,0,0,0,.43-.22,1.36,1.36,0,0,0,.35-.32,7.62,7.62,0,0,1,1,.11,8,8,0,0,0,.87.11v1.62a.53.53,0,0,0,.43-.22l.87-1.08a3.94,3.94,0,0,0,.43.32.31.31,0,0,0,.26.11.24.24,0,0,1,.17.11,1.65,1.65,0,0,0,.69-.43,5.26,5.26,0,0,0,.69-.65,2.37,2.37,0,0,0,.17-.81,2.47,2.47,0,0,1,.17-.81l.82-1.08a4.81,4.81,0,0,1,1-1.08,2.35,2.35,0,0,1,.39-.32l.48-.32a5.73,5.73,0,0,0,.78-.22c.46-.14.78-.25,1-.32h.43a1.89,1.89,0,0,0,.48.32,1.66,1.66,0,0,0,.48.22,1.58,1.58,0,0,0,.43-.16c.23-.11.35-.23.35-.38l1,.81a8.33,8.33,0,0,1,.87.81,3.94,3.94,0,0,0,.87.65,2.7,2.7,0,0,0,.87.43,6.52,6.52,0,0,0,.91.38,4.07,4.07,0,0,0,.91.27,2,2,0,0,0,.43.32,1.35,1.35,0,0,0,.43.22c.06.07.33.09.82.05l.91-.05a1.07,1.07,0,0,1,.39.22.94.94,0,0,0,.48.22.83.83,0,0,0,.22.38c.14.18.25.27.3.27s.12.18.35.32a1.33,1.33,0,0,0,.43.22l1.08.86q.83.65,1.17.86,0,.11.56.54a1.89,1.89,0,0,0,.74.43,3,3,0,0,0,.43.43.75.75,0,0,0,.43.22.24.24,0,0,0,.17.11h.52a.57.57,0,0,0,.26-.11l.17-.22a.68.68,0,0,0,.17-.43v-1a2.77,2.77,0,0,1-.22-.81,6.55,6.55,0,0,1-.13-.92v-.54a4.62,4.62,0,0,1,.13-.92,2.42,2.42,0,0,1,.22-.7l.61-.81.69-.92a3.26,3.26,0,0,1,.3-.54,1,1,0,0,0,.22-.54,1,1,0,0,1-.26-.22l-.26-.32h-.35a.66.66,0,0,1-.17.16.79.79,0,0,0-.17.16l-.17.22a1.92,1.92,0,0,1-.17.65c-.12.29-.2.43-.26.43s-.27.14-.48,0a1.07,1.07,0,0,0-.39-.22v-2.91a1.73,1.73,0,0,0-.43.54,1.67,1.67,0,0,1-.43.54h-1.3a.37.37,0,0,1-.3-.22.73.73,0,0,1-.13-.32,4.79,4.79,0,0,1-.3-1.4q-.13-1.08-.13-1.29a3.06,3.06,0,0,1-.65.54,3.21,3.21,0,0,0-.65.54h-.52a3.27,3.27,0,0,0-.78-.81,7.91,7.91,0,0,1-1-.92l-.43-.54a2.68,2.68,0,0,1-.26-.54,2.18,2.18,0,0,1-.17-.54L217.8,210v-3.56a6.41,6.41,0,0,1-1.13.11,3.73,3.73,0,0,1-.91.11,2.83,2.83,0,0,0-.82.11c-.06,0-.09,0-.09.11s0,.22-.09.22l-.17.22-.48-.05c-.26,0-.42,0-.48.05a2.84,2.84,0,0,0-.22.81,5.85,5.85,0,0,1-.22.92,1.94,1.94,0,0,0-.22.49,1.84,1.84,0,0,1-.22.49l-.52.65h-.35a3,3,0,0,1-.61-1.08,4,4,0,0,1-.35-1.19q0-.21.43-.59a5.29,5.29,0,0,0,.52-.49l.17-.54a1.44,1.44,0,0,0,.09-.54h-4.68a6.17,6.17,0,0,0-.22.81,5.84,5.84,0,0,1-.22.81,5,5,0,0,0-.48.86,2,2,0,0,1-.48.75h-.35a2.4,2.4,0,0,0-.13-1.08,3.39,3.39,0,0,0-.39-1.08,2.19,2.19,0,0,0-.82-.27,3.84,3.84,0,0,1-.91-.27,2.17,2.17,0,0,0-.17-.54,2.66,2.66,0,0,0-.26-.54l-.17-.11-.26.11-.43.49a2.35,2.35,0,0,0-.43.59h-.43a2,2,0,0,0-.43-.32,1.36,1.36,0,0,0-.43-.22.94.94,0,0,1-.26-.05,1,1,0,0,0-.26-.05V209a1.23,1.23,0,0,0-.39.16l-.48.27a1.22,1.22,0,0,1-.17.32c-.11.14-.2.22-.26.22h-.35a1.29,1.29,0,0,0-.43.27,6.2,6.2,0,0,1-.52.38h-.43a6.39,6.39,0,0,0-.22,1q-.13.81-.22,1.13v1.51l1.82-1A.87.87,0,0,1,198.59,213.78Zm16.3-3.77a2.18,2.18,0,0,1,.48-.54c0-.07.09-.11.26-.11H216c0,.07,0,.27,0,.59s0,.56,0,.7a1,1,0,0,1-.26.22,1.07,1.07,0,0,0-.26.22h-.43a1.57,1.57,0,0,0-.22-.22.29.29,0,0,1-.13-.22A1.36,1.36,0,0,1,214.89,210Zm-2.64,1.73c.29,0,.43.18.43.54s-.14.54-.43.54-.26-.18-.26-.54S212.08,211.73,212.25,211.73Zm-9.63-3v-.32q.26-.54.43-.54l.09.22-.09.32a.62.62,0,0,1-.17.32l-.26.32Zm-2.69,3.56q.26-.21.26.16c0,.25-.09.38-.26.38C199.65,212.45,199.65,212.27,199.93,212.27Zm-.35,3.24q.26,0,.26.54c0,.36-.09.54-.26.54s-.43-.18-.43-.54S199.3,215.5,199.59,215.5Z" transform="translate(-172.5 -163)" style="fill:#fff"/><path d="M183.94,262.37c8.07,5.9,22.31-20.25,34.84,5" transform="translate(-172.5 -163)" style="fill:none;stroke:#00fff2;stroke-miterlimit:10"/><path d="M270.29,212.59l.64.91.56.8a2.56,2.56,0,0,1,.2.7,5,5,0,0,1,.12.91v.54a7.05,7.05,0,0,1-.12.91,3,3,0,0,1-.2.8v1a.71.71,0,0,0,.16.43l.16.21a.5.5,0,0,0,.24.11h.48a.21.21,0,0,0,.16-.11.66.66,0,0,0,.4-.21,2.92,2.92,0,0,0,.4-.43,1.71,1.71,0,0,0,.68-.43c.34-.28.52-.46.52-.54q.32-.21,1.07-.86l1-.86a1.19,1.19,0,0,0,.4-.21c.21-.14.32-.25.32-.32s.15-.09.28-.27a.84.84,0,0,0,.2-.38.83.83,0,0,0,.44-.21,1,1,0,0,1,.36-.21l.84.05c.45,0,.7,0,.76-.05a1.19,1.19,0,0,0,.4-.21,1.85,1.85,0,0,0,.4-.32,3.53,3.53,0,0,0,.84-.27,5.74,5.74,0,0,0,.84-.38,2.41,2.41,0,0,0,.8-.43,3.66,3.66,0,0,0,.8-.64,7.87,7.87,0,0,1,.8-.8l.87-.8c0,.14.11.27.32.38a1.37,1.37,0,0,0,.4.16,1.47,1.47,0,0,0,.44-.21,1.75,1.75,0,0,0,.44-.32h.4c.16.07.45.18.88.32a4.94,4.94,0,0,0,.72.21l.44.32a2.21,2.21,0,0,1,.36.32,4.65,4.65,0,0,1,.91,1.07l.76,1.07a2.65,2.65,0,0,1,.16.8,2.53,2.53,0,0,0,.16.8,5.09,5.09,0,0,0,.64.64c.32.29.53.43.64.43a.21.21,0,0,1,.16-.11.28.28,0,0,0,.24-.11,3.59,3.59,0,0,0,.4-.32l.8,1.07a.47.47,0,0,0,.4.21v-1.61a6.78,6.78,0,0,0,.8-.11,6.48,6.48,0,0,1,.88-.11,1.29,1.29,0,0,0,.32.32,1.17,1.17,0,0,0,.4.21.61.61,0,0,0,.28-.16.48.48,0,0,0,.2-.38v-3.32c-.05-.07-.2-.32-.44-.75a2.42,2.42,0,0,1-.36-.86.77.77,0,0,1,0-.54.87.87,0,0,1,.28-.43l1.67,1v-1.5q-.08-.32-.2-1.13a6.75,6.75,0,0,0-.2-1h-.4a5.55,5.55,0,0,1-.48-.38,1.18,1.18,0,0,0-.4-.27h-.32c-.05,0-.13-.07-.24-.21a1.24,1.24,0,0,1-.16-.32l-.44-.27a1.09,1.09,0,0,0-.36-.16v-2.89a.85.85,0,0,0-.24.05.81.81,0,0,1-.24.05,1.22,1.22,0,0,0-.4.21,1.87,1.87,0,0,0-.4.32h-.4a2.33,2.33,0,0,0-.4-.59l-.4-.48-.24-.11-.16.11a2.72,2.72,0,0,0-.24.54,2.29,2.29,0,0,0-.16.54,3.33,3.33,0,0,1-.84.27,1.91,1.91,0,0,0-.76.27,3.55,3.55,0,0,0-.36,1.07,2.58,2.58,0,0,0-.12,1.07h-.32a2.05,2.05,0,0,1-.44-.75,5.12,5.12,0,0,0-.44-.86,6.18,6.18,0,0,1-.2-.8,6.62,6.62,0,0,0-.2-.8h-4.3a1.55,1.55,0,0,0,.08.54l.16.54a5.19,5.19,0,0,0,.48.48q.4.38.4.59a4.22,4.22,0,0,1-.32,1.18,3,3,0,0,1-.56,1.07h-.32l-.48-.64a1.9,1.9,0,0,1-.2-.48,2,2,0,0,0-.2-.48,6.21,6.21,0,0,1-.2-.91,3,3,0,0,0-.2-.8c-.05-.07-.2-.09-.44-.05l-.44.05-.16-.21c-.05,0-.08-.07-.08-.21s0-.11-.08-.11a2.41,2.41,0,0,0-.76-.11,3.17,3.17,0,0,1-.84-.11,5.45,5.45,0,0,1-1-.11v3.54l-1-1.61a2.31,2.31,0,0,1-.16.54,2.8,2.8,0,0,1-.24.54l-.4.54a7.53,7.53,0,0,1-.88.91,3.17,3.17,0,0,0-.72.8h-.48a3,3,0,0,0-.6-.54,2.89,2.89,0,0,1-.6-.54q0,.22-.12,1.29a5.11,5.11,0,0,1-.28,1.39.76.76,0,0,1-.12.32c-.08.14-.17.21-.28.21h-1.19a1.65,1.65,0,0,1-.4-.54,1.7,1.7,0,0,0-.4-.54v2.89a1,1,0,0,0-.36.21q-.28.22-.44,0c-.05,0-.13-.14-.24-.43a2,2,0,0,1-.16-.64l-.16-.21a.75.75,0,0,0-.16-.16.64.64,0,0,1-.16-.16h-.32l-.24.32a1,1,0,0,1-.24.21,1.09,1.09,0,0,0,.2.54A3.33,3.33,0,0,1,270.29,212.59Zm24.89.11c0,.36-.13.54-.4.54s-.24-.18-.24-.54.08-.54.24-.54S295.18,212.34,295.18,212.7Zm-.72-3.75c.27,0,.27.18,0,.54-.16,0-.24-.12-.24-.38S294.31,208.81,294.47,208.95Zm-2.86-4.4q.16,0,.4.54v.64l-.24-.32a.64.64,0,0,1-.16-.32l-.08-.32Zm-8.43,3.86c.16,0,.24.18.24.54s-.08.54-.24.54-.4-.18-.4-.54S282.9,208.41,283.17,208.41Zm-3.1-2.36c.16,0,.24,0,.24.11a2.1,2.1,0,0,1,.44.54,1.41,1.41,0,0,1,.28.64.3.3,0,0,1-.12.21,1.49,1.49,0,0,0-.2.21h-.4a1,1,0,0,0-.24-.21.9.9,0,0,1-.24-.21c0-.14,0-.38,0-.7s0-.52,0-.59Z" transform="translate(-172.5 -163)" style="fill:#fff"/><path d="M192.72,203.41c1.41-.69,10.46.67,13.38-2.75,3.52-4.13,12-2.06,16.9,1.38,4.23,3,9.14,3.51,13.55,6.19" transform="translate(-172.5 -163)" style="fill:none;stroke:#00fff2;stroke-miterlimit:10"/><path d="M181.8,234.05c2,.17,3.68,1.56,5.66,1.87s4.06-.55,6-1.32c4.19-1.69,8.7-3,13.22-2.54a8.55,8.55,0,0,1,3.21.89,11.14,11.14,0,0,1,2.09,1.61l3.53,3.2a7.33,7.33,0,0,0,2.62,1.76,7.46,7.46,0,0,0,2.2.23,12.61,12.61,0,0,0,5.73-.87" transform="translate(-172.5 -163)" style="fill:none;stroke:#00fff2;stroke-miterlimit:10"/><path d="M246.16,237.93a8.67,8.67,0,0,1-.26-1.13,9.15,9.15,0,0,1-.17-1.13,5.08,5.08,0,0,0-.09-.59c-.06-.32-.1-.66-.13-1s-.07-.7-.13-1a5.42,5.42,0,0,1-.09-.59c-.06-.22-.14-.61-.26-1.19a8.22,8.22,0,0,0-.26-1.08c-.06,0-.13-.12-.22-.38a2,2,0,0,1-.13-.59,7.84,7.84,0,0,0-.48-.86,7.92,7.92,0,0,1-.48-.86,5.31,5.31,0,0,0-.17-.75,4.29,4.29,0,0,1-.17-.86,1,1,0,0,1-.26-.22l-.26-.32a2.18,2.18,0,0,0-.17-.54,2.65,2.65,0,0,0-.26-.54,4.82,4.82,0,0,0-.82-1.46q-.74-1-.91-1.24l-.17.22a1,1,0,0,1-.26.22.57.57,0,0,1-.26.11h-.43a.24.24,0,0,1-.17-.11,2.08,2.08,0,0,1-.48-.75c-.2-.43-.33-.72-.39-.86a1.38,1.38,0,0,0-.48-.27,1.37,1.37,0,0,1-.48-.27c-.06-.07-.19-.27-.39-.59a2,2,0,0,0-.48-.59l-.43.05c-.23,0-.38,0-.43-.05s-.22-.23-.3-.7a6.51,6.51,0,0,1-.13-.92,2.57,2.57,0,0,1-1.39-.27,3.16,3.16,0,0,1-1.3-.81,3.5,3.5,0,0,1-.35-1.24,4,4,0,0,1-.09-1.35l-.17-.11-.26.11a2.38,2.38,0,0,0-.48.49,1.3,1.3,0,0,0-.3.49v1.19l-.52.43V217a1.73,1.73,0,0,0,.26.43c.12.14.2.22.26.22s.23.05.52-.05a2.11,2.11,0,0,1,.61-.16c0,.22,0,.72.09,1.51a5,5,0,0,1,0,1.4,2.47,2.47,0,0,1-.13.65,1,1,0,0,1-.3.54c-.06,0-.13-.07-.22-.22a3,3,0,0,1-.22-.43q-.09-.21-.39-.81a5.29,5.29,0,0,0-.48-.81,1.84,1.84,0,0,1,0,1.19,3.36,3.36,0,0,1-.39,1.08l-.65.38a1.73,1.73,0,0,1-.65.27v3.13l.52.54c.06,0,.13-.07.22-.22a.73.73,0,0,0,.13-.32,8.8,8.8,0,0,0,.26-.86,4.19,4.19,0,0,0,.17-.86,1.62,1.62,0,0,1,.22-.22,1.41,1.41,0,0,0,.22-.22.16.16,0,0,1,.13.05.16.16,0,0,0,.13.05h.17a4.23,4.23,0,0,0,0,.43,4,4,0,0,1,0,.54,2.55,2.55,0,0,1-.26.81,2.58,2.58,0,0,0-.26.81.24.24,0,0,0,.17.11.59.59,0,0,1,.26.11,2.93,2.93,0,0,0,.43.22,2.3,2.3,0,0,1,.3.92q.13.7.13.81a4.49,4.49,0,0,1,.48,1.08q.31.86.39,1.08l.52.65c.12.07.29.05.52-.05a1.41,1.41,0,0,1,.52-.16v2.48h.26c.23,0,.35,0,.35-.11s.36-.25.74-.54a5.27,5.27,0,0,0,.65-.54c.06,0,.09,0,.09.05s0,.05.09.05h.17a.34.34,0,0,0,.09.22.16.16,0,0,1,0,.22l-.39,1a10.36,10.36,0,0,1-.48,1.13.5.5,0,0,0,.17.38c.12.11.2.16.26.16a3,3,0,0,0,.61-.22,5.53,5.53,0,0,0,.69-.32,1,1,0,0,1,.26.05.94.94,0,0,0,.26.05.55.55,0,0,1,0,.22.59.59,0,0,0,0,.22c.06.15.16.43.3.86a3.51,3.51,0,0,1,.22.86v.43c0,.07-.09.18-.26.32s-.26.25-.26.32v1.62a11.18,11.18,0,0,1,.3,1.35,12,12,0,0,1,.22,1.35v2.26a5.47,5.47,0,0,0,.17.75,4.21,4.21,0,0,1,.17.86,11.73,11.73,0,0,1,.26,1.67q.17,1.46.26,2.1v.54l-1.82-1-.35,1,.35.22c.06.07.1.11.13.11s.07,0,.13.11a.24.24,0,0,0,.17.11.67.67,0,0,1,.3.16.47.47,0,0,1,.22.38v.22a.56.56,0,0,1,0,.22.58.58,0,0,0,0,.22h-1a.35.35,0,0,1,.09.22v.22a2.65,2.65,0,0,1,.26.54,1.93,1.93,0,0,1,.17.65c.06,0,.09,0,.09.11v.22l-.09.11a1.91,1.91,0,0,1-.43.32c-.23.14-.35.25-.35.32a1.67,1.67,0,0,0,.17.49,1.54,1.54,0,0,1,.17.59v.54a.62.62,0,0,1-.17.32.65.65,0,0,0-.17.32.62.62,0,0,0-.22-.43c-.14-.14-.25-.22-.3-.22h-.09c-.06,0-.09,0-.09-.05s0-.05-.09-.05a.24.24,0,0,0-.17.11,2,2,0,0,0-.22.49c-.09.25-.16.45-.22.59a.73.73,0,0,1-.13.32.36.36,0,0,1-.3.22,1.09,1.09,0,0,0-.39.22,2.45,2.45,0,0,0-.48.43c-.06,0-.2.22-.43.65a6.31,6.31,0,0,1-.52.86,2.71,2.71,0,0,1-.13.54,1.92,1.92,0,0,1-.22.54.5.5,0,0,1-.17.38.51.51,0,0,1-.35.16,2.78,2.78,0,0,0-.13-.54,1,1,0,0,0-.3-.54h-.43l-.43.54a3.7,3.7,0,0,0-.35.54v1.62a.5.5,0,0,1-.17.38.51.51,0,0,1-.35.16,1.2,1.2,0,0,0-.17-.54,5.74,5.74,0,0,1-.26-.54h-.43a7.35,7.35,0,0,1-1.26.92l-1.26.81a3.44,3.44,0,0,1-.69.27,3,3,0,0,1-.69.16,1.53,1.53,0,0,0-.3.05,1.58,1.58,0,0,1-.39.05h-.43a.24.24,0,0,1-.17-.11,3,3,0,0,1-.69-.16,1.58,1.58,0,0,1-.61-.27h-1.39a3.68,3.68,0,0,0-.65.81,3.51,3.51,0,0,1-.65.81l-.26.11a.24.24,0,0,1-.17-.11,8.17,8.17,0,0,1-.69-.54,5.4,5.4,0,0,1-.69-.65,3.63,3.63,0,0,0-.65-.27,2.5,2.5,0,0,0-.65-.16,3.14,3.14,0,0,0-.61.22,3,3,0,0,1-.61.22,2,2,0,0,1-.91.05l-.91-.05a2,2,0,0,0-.48.65c-.2.36-.33.54-.39.54a1.13,1.13,0,0,1-.65.32,3.54,3.54,0,0,1-.65.11h-1a2.92,2.92,0,0,1-.43-.22,1.36,1.36,0,0,0-.43-.22h-1.3a1.69,1.69,0,0,0-.43.59c-.17.32-.32.49-.43.49s-.51.13-1-.05a4.16,4.16,0,0,0-.91-.27,8.24,8.24,0,0,1,.09-1,2.64,2.64,0,0,0,0-1,.35.35,0,0,0-.09-.22c-.06-.07-.1-.11-.13-.11s-.07,0-.13-.11-.29-.2-.52-.38a1.26,1.26,0,0,0-.43-.27h-3a3.18,3.18,0,0,1-.56-.16l-1-.32a6.31,6.31,0,0,1-1-.38,1.7,1.7,0,0,0-.61-.22H196a2.88,2.88,0,0,1-.43-.22,1,1,0,0,1-.26-.22.24.24,0,0,0-.17-.11l-.87.05a1.79,1.79,0,0,1-.87-.05q-.09,0-.43-.49a2.45,2.45,0,0,0-.52-.59,10.69,10.69,0,0,0-1.3-.49q-1.13-.38-1.65-.59H189c-.06,0-.14.07-.26.22a.65.65,0,0,0-.17.32q0,.22-.13,1.46t-.22,1.78a5.34,5.34,0,0,1,0,.59c0,.25,0,.41,0,.49h1.39a11.91,11.91,0,0,0,.13,1.4q.13,1,.35,2t.43,1.94a5.94,5.94,0,0,0,.39,1.24q.17.32.61,1t1,1.4q.57.76,1.08,1.35a2.76,2.76,0,0,0,.78.7,3.76,3.76,0,0,1,.87-.27,3.65,3.65,0,0,0,.87-.27h1.73a9.55,9.55,0,0,1,.91.49c.43.25.88.52,1.34.81s.9.57,1.3.86a5.56,5.56,0,0,0,.87.54c0-.22,0-.68.13-1.4a3.4,3.4,0,0,1,.3-1.29q.09-.21.61-.32a2.38,2.38,0,0,0,.69-.22c.06,0,.16-.09.3-.27a.81.81,0,0,0,.22-.38,1.21,1.21,0,0,0,.39-.16,1.33,1.33,0,0,0,.39-.27h.52c.06.07.1.11.13.11s.07,0,.13.11a.35.35,0,0,1,.09.22,4.34,4.34,0,0,1,0,1.73c.06,0,.16-.07.3-.22s.22-.25.22-.32.14-.41.26-.81A3.49,3.49,0,0,0,207,274c.17-.36.32-.54.43-.54l1.73,1v3.67a1.17,1.17,0,0,1,.43.11,1.21,1.21,0,0,0,.43.11,2.57,2.57,0,0,1,.26.54,2.81,2.81,0,0,0,.26.54,9.42,9.42,0,0,0,.65,1,3.78,3.78,0,0,0,.65.76q.17.11,1.08.54a4.69,4.69,0,0,0,1.08.43l.52.65h.35l.74-.32a1.94,1.94,0,0,0,.56-.32c.12,0,.29-.14.52-.43a1.57,1.57,0,0,0,.35-.54c.06-.15.14-.43.26-.86s.2-.72.26-.86l.78.65a5.26,5.26,0,0,1,.22-1.13l.3-1.13q.09-.22.39-.81a5.56,5.56,0,0,1,.48-.81.64.64,0,0,0,.17.32c.12.14.2.22.26.22a3.34,3.34,0,0,0,.43.38,1.29,1.29,0,0,0,.43.27q.17,0,.48.43a2.18,2.18,0,0,0,.48.54l.87-1,.39.54c.2.29.36.43.48.43l.17.11.26-.11a6.86,6.86,0,0,0,.91-.54,2.41,2.41,0,0,1,.82-.43c.06,0,.13-.18.22-.54a2.24,2.24,0,0,1,.22-.65c.17-.36.35-.54.52-.54a1.4,1.4,0,0,0,.35.32.31.31,0,0,0,.26.11.23.23,0,0,1,.17.11c0,.07,0,.11.09.11h.35c.06,0,.09,0,.09-.11a7.08,7.08,0,0,1,.56-.92,3.68,3.68,0,0,1,.65-.81c.06,0,.2.11.43.32s.38.32.43.32h.87a3.26,3.26,0,0,0,1-.27,6.62,6.62,0,0,0,.87-.38c.12-.07.35-.23.69-.49a4.33,4.33,0,0,0,.61-.49,1.06,1.06,0,0,0,.13-.49q0-.38.09-.86c0-.32.06-.63.09-.92s0-.47,0-.54.41-.68.87-1.4a7.4,7.4,0,0,1,1-1.29,1.77,1.77,0,0,0,.3.27c.14.11.22.2.22.27a3.31,3.31,0,0,0,.35.75c.23.43.38.72.43.86s0,.11.09.11h.35c.06,0,.09,0,.09-.11a6.72,6.72,0,0,1,.61-.54,6,6,0,0,0,.61-.54,2.34,2.34,0,0,0,.69-.22,1.94,1.94,0,0,0,.61-.32,5.07,5.07,0,0,0,.3-1.13,8.16,8.16,0,0,0,.22-1.56,1.13,1.13,0,0,0,.09-.43v-.65c0-.14,0-.36,0-.65s0-.47,0-.54-.07-.18-.22-.32-.25-.22-.3-.22h1l.87-3.77h.52a3.12,3.12,0,0,0,0,1.13,2.56,2.56,0,0,0,.3,1,.55.55,0,0,0,.3.16,1.58,1.58,0,0,0,.39.05,1.41,1.41,0,0,0,.3-.05.54.54,0,0,0,.3-.16c.06-.29.15-.92.26-1.89s.2-1.6.26-1.89.13-.61.22-1.19a3.55,3.55,0,0,1,.22-1c0-.14.12-.27.35-.38l.17-.07V238.15Zm-53.68,32.68a.73.73,0,0,1-.13.32c-.09.15-.16.22-.22.22s-.14-.07-.26-.22a.64.64,0,0,1-.17-.32v-.22a.25.25,0,0,0,0-.16.26.26,0,0,1,0-.16,2.14,2.14,0,0,0-.09-.54h.61c.06,0,.13.07.22.22a.74.74,0,0,1,.13.32l.09.32A.34.34,0,0,1,192.48,270.61Zm1.82,5c-.29,0-.43-.2-.43-.59s.14-.59.43-.59.35.2.35.59S194.53,275.57,194.3,275.57Zm4.77-6.58c-.29-.14-.29-.32,0-.54s.26,0,.26.27S199.24,269.06,199.07,269Zm2.25,1.4v-.32l.43,1.08c-.06,0-.13-.07-.22-.22a3.15,3.15,0,0,0-.22-.32Zm-1.3-.32c0-.36.15-.54.43-.54s.35.18.35.54-.12.54-.35.54S200,270.43,200,270.07Zm1.6,6.69a.37.37,0,0,1-.3-.11.37.37,0,0,1-.3-.22.73.73,0,0,1-.13-.32q0-.22-.09-1.19c-.06-.65-.09-1-.09-1.19a1.53,1.53,0,0,1,.3.05.56.56,0,0,1,.3.16,2.78,2.78,0,0,1,.26.49,1.54,1.54,0,0,1,.17.59,3.34,3.34,0,0,1,.13.86c0,.43,0,.72,0,.86Zm8-2.37c-.23,0-.35-.16-.35-.49s.12-.49.35-.49.35.16.35.49S209.88,274.38,209.65,274.38Zm2.6-2a.74.74,0,0,1-.09-.43v-.43a2.93,2.93,0,0,1,.48.11,2.41,2.41,0,0,0,.56.11.87.87,0,0,1,.43.65,2,2,0,0,1-.13.59.89.89,0,0,1-.3.49,3,3,0,0,1-.52-.49A2.29,2.29,0,0,1,212.25,272.33Zm1.47,8.09h-.52c-.06,0-.13-.27-.22-.81l-.22-1.35v-.43a.5.5,0,0,0,0-.27.26.26,0,0,1,0-.16.71.71,0,0,1,.52.32,5.86,5.86,0,0,1,.22.81,6.3,6.3,0,0,0,.22.81,1.62,1.62,0,0,1,.09.59Zm1.65-13h-.43l.43-.65Zm1.82,10.14a7.57,7.57,0,0,1-.43.75c0,.07,0,.11-.09.11h-.35c-.06,0-.09,0-.09-.11s-.13-.07-.22-.22a.74.74,0,0,1-.13-.32v-.11c0-.07,0-.11,0-.11s0,0,0-.11,0-.11.09-.11.12-.18.35-.32l.52-.32h.87Q217.54,276.86,217.19,277.51Zm.87-9.06c-.17-.07-.26-.16-.26-.27s.09-.2.26-.27.17,0,.17.27S218.18,268.53,218.06,268.45Zm23.24-24.8v.22c0,.07-.07.18-.22.32l-.3.32h-.35l-.26-.32a1.31,1.31,0,0,1-.17-.32l.78-2q.09,0,.3.65a3.5,3.5,0,0,1,.22.86Z" transform="translate(-172.5 -163)" style="fill:#fff"/><path d="M245.35,241.64a2,2,0,0,1-.51-.5,2.93,2.93,0,0,1-.64-.67v-.84a6,6,0,0,1,.32-1.09q.32-.92.44-1.26a2.7,2.7,0,0,0-.13-.75,2.37,2.37,0,0,1-.13-.59h-.51l-1,2.52a6.33,6.33,0,0,1-.19-1.51c0-.78-.06-1.28-.06-1.51s0-.45-.06-1-.06-.95-.06-1.17v-1.51a2.38,2.38,0,0,1,.13-.84,4.38,4.38,0,0,1,.06-.59,1.35,1.35,0,0,1,.19-.59,2.54,2.54,0,0,0,.57-.59l.44-.59c.08,0,.23.14.44.42a1.31,1.31,0,0,1,.32.75q0,.34-.06,1.51a4.64,4.64,0,0,0,.06,1.51c0,.45.13.67.38.67a4.57,4.57,0,0,1,.19-.84c.13-.45.23-.78.32-1a.28.28,0,0,1,.13-.25.9.9,0,0,0,.25-.42,2.1,2.1,0,0,0,.25-.5l.25-.34.25-.34a6.9,6.9,0,0,0,.63-1.93,13.15,13.15,0,0,0,.38-1.93l.25-.34.25-.34a2.11,2.11,0,0,1-.57-.84,2.65,2.65,0,0,1-.32-1v-2a4.08,4.08,0,0,0-1.14-.59,3.88,3.88,0,0,1-1.14-.59l-.51-2h1.65a3.44,3.44,0,0,0,.13.67,1.07,1.07,0,0,0,.38.67h.63a.56.56,0,0,1,.13-.34l.25-.34h.51l.58.35V178.29h0c-.21.28-.4.42-.57.42a1.92,1.92,0,0,1-.7.76l-.83.59a2.65,2.65,0,0,0-.38.67,1.88,1.88,0,0,0-.13.67h-1.14a8.9,8.9,0,0,1-.64,1.17,2.92,2.92,0,0,0-.51,1.17c0,.11,0,.39.06.84s.11.92.19,1.43a12.86,12.86,0,0,0,.32,1.43,4.53,4.53,0,0,1,.19.84V189a4,4,0,0,0-.51,1.09,4.53,4.53,0,0,0-.25.92,2,2,0,0,1-.7.42,2.87,2.87,0,0,1-.7.25,1.2,1.2,0,0,0,.13.67l.25,1.17c-.09.23-.23.56-.44,1s-.44.67-.7.67a1.21,1.21,0,0,1-1,.5v3a4.83,4.83,0,0,1-.76-.17,1.19,1.19,0,0,0-.89,0c-.25,0-.38.23-.38.67v5c0,.11-.23.31-.7.59a7.61,7.61,0,0,0-1.08.75.89.89,0,0,1-.76.34c0,.11,0,.34-.06.67a6.64,6.64,0,0,0-.06.84,4.62,4.62,0,0,1-.25.92,3.92,3.92,0,0,0-.25,1.09c-.09,0-.21.11-.38.34a.35.35,0,0,1-.25.17,2.46,2.46,0,0,1-.19.67c-.13.34-.28.5-.44.5a10.11,10.11,0,0,1-1.08,1.09,3.88,3.88,0,0,0-1,1.09.78.78,0,0,1-.32.25.27.27,0,0,0-.19.25v2l.51.67a3.89,3.89,0,0,0,.7,1.09,7,7,0,0,1,.83,1.26,2.1,2.1,0,0,0,.32.34.47.47,0,0,1,.19.34,1.25,1.25,0,0,1,.64.25l.63.42v.67c-.17,0-.38.17-.63.5-.09,0-.25.11-.51.34a1.07,1.07,0,0,1-.64.34,10,10,0,0,1,0,3.19,3.62,3.62,0,0,1-.13.67,2.09,2.09,0,0,1-.25.67H233c-.34,0-.51-.22-.51-.67v-2.52a12,12,0,0,0-.19-1.68,10.22,10.22,0,0,0-.32-1.51c0-.45-.17-.67-.51-.67l-.76.67v7l-.89,1.34-1.27-2a.56.56,0,0,1-.13.34l-.25.34a4.92,4.92,0,0,0-.57,1.26,4.83,4.83,0,0,0-.32,1.26,13.19,13.19,0,0,1-.38,1.93q-.38,1.6-.38,1.76a7.11,7.11,0,0,0-.44.76,2.14,2.14,0,0,1-.57.75h-1.14a.56.56,0,0,0,.25.5l.25.5.13.5a1.82,1.82,0,0,1-.06.42,1.71,1.71,0,0,0-.06.42,2.45,2.45,0,0,1-.13.59,2.42,2.42,0,0,0-.13.59,2.66,2.66,0,0,0-.13,1.59c.08.84.13,1.37.13,1.59a6.18,6.18,0,0,0-.64.5,1.77,1.77,0,0,0-.51.67h-.76a10.07,10.07,0,0,0-.89-.84,7.93,7.93,0,0,1-1-1,.81.81,0,0,1-.38-.17c-.17-.11-.25-.22-.25-.34v1.17a5.72,5.72,0,0,0,.25,1.26,4.53,4.53,0,0,0,.38,1.09,3.36,3.36,0,0,0,.19.76,3.43,3.43,0,0,1,.19.75,2.69,2.69,0,0,1-.38.67,3.9,3.9,0,0,0-.38.59,2.89,2.89,0,0,1-.25.42,1,1,0,0,1-.64.84,11.49,11.49,0,0,1,.13,2.18,14.69,14.69,0,0,1-.13,2.35,3.4,3.4,0,0,1-.63,1l-.38.67a9.79,9.79,0,0,0-.32,1.26,7.62,7.62,0,0,0-.19,1.43h-1c-.17-.22-.49-.59-1-1.09a4.29,4.29,0,0,1-.83-1.09l-.32.84a2.49,2.49,0,0,0-.19.67,6.94,6.94,0,0,0-.25,1.34,13.28,13.28,0,0,0-.13,1.34l-.13.5v.34a.55.55,0,0,0,.13.34c0,.11.13.31.38.59s.42.48.51.59v1.34a2,2,0,0,1-.7.42,6.13,6.13,0,0,0-.83.42.83.83,0,0,0-.38.17c-.17.11-.25.23-.25.34v1l.25.34a1.43,1.43,0,0,0,.38.34,3.19,3.19,0,0,1,.44,1.09,5.92,5.92,0,0,1,.19.92q-.13.17-.7,1.26a5.93,5.93,0,0,0-.57,1.26,2.31,2.31,0,0,0,.32.75,2.41,2.41,0,0,1,.32.75,9.76,9.76,0,0,1-.25,1.51,14.19,14.19,0,0,1-.38,1.51,1,1,0,0,1-.44-.25,1,1,0,0,0-.57-.25h-.25l-.25-.17-.63.17a6.25,6.25,0,0,1-.19,1.17,3.61,3.61,0,0,1-.32,1,4,4,0,0,1-.25,1.09,3.91,3.91,0,0,0-.25,1.09v2.35c.08.23.27.67.57,1.34a4.43,4.43,0,0,1,.44,1.34v3.86a1,1,0,0,0,.32.67c.21.22.32.39.32.5s.34.14.76.08.68-.08.76-.08a4.88,4.88,0,0,0,1.46.34,3.09,3.09,0,0,1,1.33.34H217c0-.11.15-.31.44-.59a2.24,2.24,0,0,0,.57-.76,7.49,7.49,0,0,0,.51-1.17,5,5,0,0,0,.38-1.34c.08,0,.32-.25.7-.75a2.31,2.31,0,0,0,.57-1.09c0-.22-.17-.47-.51-.76a1.51,1.51,0,0,0-.76-.42c-.09-.11-.32-.17-.7-.17s-.62.06-.7.17a9.17,9.17,0,0,1,.19-1.34q.19-1,.32-1.51a.82.82,0,0,0,.38-.17l.51-.34h.13a.34.34,0,0,0,.25-.17l.25-.34v1.85a8.88,8.88,0,0,0,.83-.67,8.91,8.91,0,0,1,.83-.67,5,5,0,0,0,1.08-.25,4.71,4.71,0,0,1,1.21-.25v-1.34a13.33,13.33,0,0,0-.38-1.93,13.13,13.13,0,0,1-.38-1.93v-5c.08-.22.27-.67.57-1.34s.49-1.12.57-1.34a6.77,6.77,0,0,0-.13-.84,2.51,2.51,0,0,0-.25-.84,8.88,8.88,0,0,1-.64,1.17,2.9,2.9,0,0,0-.51,1.17,1.07,1.07,0,0,0-.38.42c-.09.17-.17.25-.25.25a.34.34,0,0,1-.25.17l-.25-.17a7.61,7.61,0,0,1,.19-1.26,3.87,3.87,0,0,1,.32-1.09,8.86,8.86,0,0,0,.25-1.68,4,4,0,0,1,.38-1.68l.13-.17.25-.34h.76L226,264v1.68c0,.23.17.45.51.67,0,.11.08.17.25.17a5.8,5.8,0,0,1,.25-1.26,5.87,5.87,0,0,0,.25-1.26c0-.11.15-.34.44-.67s.45-.56.45-.67v-.67a7.18,7.18,0,0,1-.25-.84l-.25-1v-.67q.38-.33,1.33-1.26a14.12,14.12,0,0,0,1.21-1.26c.08,0,.21-.11.38-.34a.56.56,0,0,0,.13-.34.38.38,0,0,0,.13-.5,1.86,1.86,0,0,1-.13-.67.45.45,0,0,0,.38-.17.22.22,0,0,0,.19-.08.22.22,0,0,1,.19-.08,3.47,3.47,0,0,0,.25.84l.25.67.25.34.25.34a1.53,1.53,0,0,0,.57-.34,1.54,1.54,0,0,1,.57-.34c-.09,0-.13.2-.13.59a1.42,1.42,0,0,0,.13.75,1.29,1.29,0,0,0,.32.59l.57.76c.17,0,.21,0,.13.08s0,.08.13.08a9.15,9.15,0,0,1,.13-1.17,3,3,0,0,1,.25-1,1.94,1.94,0,0,1,.7-.75l.83-.59q.12-.17.76,0a1.16,1.16,0,0,0,.89,0l.25-.34.38-.5h.38q.25.17.89.5a2.88,2.88,0,0,0,.76.34,12.64,12.64,0,0,0,1.91-.34q1.53-.33,2-.5l1,.08a1.88,1.88,0,0,0,1.08-.08,2.42,2.42,0,0,0,.83-.25,2.86,2.86,0,0,1,.7-.25l.58,0V241.64Zm-.47-27h.63l-.63.5Zm-2-21v.5l-.76-.5Zm-29.09,95.13h-.64v-.67h.64Zm.51-4.53c0,.45-.17.67-.51.67l-.64.17V281.8a4.46,4.46,0,0,0,.64.59c.34.28.51.53.51.75v.17a.4.4,0,0,0,.06.25.43.43,0,0,1,.06.25ZM215.4,281q-.38,0-.38-.5t.38-.5q.38,0,.38.5T215.4,281Zm4.83-32.89a.55.55,0,0,0,.13.34.34.34,0,0,0,.25.17l.13.5-.13.34-.25.34a.56.56,0,0,0-.13.34Zm-1-.59c0-.39.13-.59.38-.59s.51.2.51.59-.17.59-.51.59S219.22,247.88,219.22,247.49Zm1,11.83a3.86,3.86,0,0,0-.38.59,2.84,2.84,0,0,1-.25.42V259h.64Zm1.14-3h-.25a.61.61,0,0,1-.51-.17q-.38,0-.38-.5h1.14Zm1.4,4.53V259a.23.23,0,0,1,.19.08.22.22,0,0,0,.19.08.34.34,0,0,0,.25.17Q223.41,260.49,222.77,260.82Zm2.41-19.8h-1c.08,0,.13-.05.13-.17s0-.17.13-.17.13-.25.38-.42.38-.31.38-.42Zm2.54,17.28c-.25,0-.38-.22-.38-.67s.13-.67.38-.67.25.23.25.67S227.9,258.31,227.73,258.31Zm6.48-45.8c.17,0,.25.23.25.67s-.09.67-.25.67-.38-.22-.38-.67S234,212.5,234.21,212.5Zm-.51,19.8.25.34.25.34v.34c0,.11,0,.17.13.17h-.64Zm4.19,3.52v1l-.64,1q0,.34-.19,1.68t-.19,1.51c0,.23,0,.36-.13.42a.89.89,0,0,0-.25.42,2.08,2.08,0,0,1-.25.5h-2a.34.34,0,0,1-.25-.17l-.25-.34a3.12,3.12,0,0,1-.44-1.09,5.85,5.85,0,0,1-.19-.92v-2.52a10.41,10.41,0,0,0,1.72-1.85,16.1,16.1,0,0,0,1.46-2c.17,0,.32-.17.44-.5a2.45,2.45,0,0,0,.19-.67c.25,0,.38.23.38.67.08.23.19.56.32,1a3.07,3.07,0,0,0,.32.84Zm.13-21.31c0-.45.13-.67.38-.67s.38.23.38.67-.13.67-.38.67S238,215,238,214.52Zm.89,41.11h-.51V255h.51Zm.76-13.84a5.78,5.78,0,0,0-.25,1.26.45.45,0,0,1-.51.5v-2.85a1,1,0,0,1,.25-.5l.25-.34.25.34a1,1,0,0,1,.25.5A7.23,7.23,0,0,1,239.67,241.78Z" transform="translate(-172.5 -163)" style="fill:#00fff2;stroke:#233140;stroke-miterlimit:10"/><path d="M181.45,284.6c.7-2.06,3.71-.13,5.27-.93,3.79-1.94,8.54-2.81,12.29-.8,1.1.59,2.05,1.39,3.09,2.07,2.76,1.79,8.45-5.57,11.75-5.84" transform="translate(-172.5 -163)" style="fill:none;stroke:#00fff2;stroke-miterlimit:10"/><path d="M214.8,175.28a4,4,0,0,1,2.69.67c.8.49,1.51,1.11,2.31,1.61a8.33,8.33,0,0,0,5.42,1.16,28.9,28.9,0,0,0,4.76-1.42,19.36,19.36,0,0,1,7.31-.82c1.15.09,2.49.44,2.88,1.5.33.9-.19,2,.27,2.81a2.63,2.63,0,0,0,1.1.93,21.22,21.22,0,0,0,4.17,1.75" transform="translate(-172.5 -163)" style="fill:none;stroke:#00fff2;stroke-miterlimit:10"/><path d="M279.74,176.5a8.47,8.47,0,0,1-4.74-.94c-1.75-.93-3.29-2.52-5.28-2.59s-3.9,1.7-4.66,3.64c-.46,1.17-.74,2.55-1.79,3.27s-2.39.52-3.63.68c-2.55.35-4.56,2.23-6.38,4" transform="translate(-172.5 -163)" style="fill:none;stroke:#00fff2;stroke-miterlimit:10"/><path d="M305.2,204c-2.31.53-4.65-.81-6.33-2.45s-3-3.64-4.93-5a12.3,12.3,0,0,0-8.75-1.83,24,24,0,0,0-8.5,3.21c-4,2.3-8.27,5.32-12.81,4.38-1.12-.23-2.18-.7-3.31-.86a3.25,3.25,0,0,0-3.09,1" transform="translate(-172.5 -163)" style="fill:none;stroke:#00fff2;stroke-miterlimit:10"/><path d="M311,236.94a36.55,36.55,0,0,0-7.34-4.37,12.5,12.5,0,0,0-8.41-.6c-2.82.92-5,3.13-7.65,4.45a13.54,13.54,0,0,1-10.53.6c-1.88-.68-3.59-1.79-5.52-2.33s-4.27-.39-5.58,1.1" transform="translate(-172.5 -163)" style="fill:none;stroke:#00fff2;stroke-miterlimit:10"/><path d="M311.14,259.68c-2.63-2.47-6-4.48-9.64-4.53-2.78,0-5.44,1.06-8,2.17s-5.13,2.3-7.91,2.46-5.83-1-7.07-3.41a20.77,20.77,0,0,0-1.07-2.36c-1.49-2.21-4.8-2.06-7.48-1.64" transform="translate(-172.5 -163)" style="fill:none;stroke:#00fff2;stroke-miterlimit:10"/><path d="M315.12,283.63a31.82,31.82,0,0,0-7.35-3.3,10.82,10.82,0,0,0-7.88.67c-2.35,1.31-3.83,3.66-5.52,5.72s-4,4-6.72,3.87c-3.38-.16-6-3.52-9.38-3.48" transform="translate(-172.5 -163)" style="fill:none;stroke:#00fff2;stroke-miterlimit:10"/><path d="M287.28,302a5.79,5.79,0,0,0-1.86-3.32c-3.42-3.38-8.7-4.31-13.55-4a27,27,0,0,1-4.45.18,16.24,16.24,0,0,1-5.61-1.85q-2.5-1.23-4.86-2.71c-1.68-1.05-3.39-2.3-4.09-4.13-.88-2.3.1-4.91,1.52-6.94,1.23-1.75,2.87-3.51,2.77-5.63-.1-2.29-2.17-4-3.44-5.89-1.77-2.69-2-6.06-2.05-9.26q-.06-3.6.12-7.21" transform="translate(-172.5 -163)" style="fill:none;stroke:#00fff2;stroke-miterlimit:10"/><path d="M246.92,254c.29,3.11.54,6.41-.88,9.21-.9,1.76-2.39,3.17-3.44,4.85a11.3,11.3,0,0,0-1.3,8.92c.62,2.23,2,4.48,1.33,6.72s-3,3.57-5.37,4-4.76.23-7.09.68a25.73,25.73,0,0,0-4.69,1.54c-4.17,1.67-8.57,3.52-11.16,7.12-1.19,1.66-2,3.71-3.79,4.76" transform="translate(-172.5 -163)" style="fill:none;stroke:#00fff2;stroke-miterlimit:10"/><path d="M247.48,241.87A23,23,0,0,1,248,233c.36-1.42.85-2.81,1.16-4.24a8.66,8.66,0,0,0,.06-4c-.55-2.07-2.23-3.93-1.93-6" transform="translate(-172.5 -163)" style="fill:none;stroke:#00fff2;stroke-miterlimit:10"/><path d="M251.21,242.4c.13-1.82-.64-3.57-1-5.36a12.32,12.32,0,0,1,.83-7.49,7.41,7.41,0,0,0,1.07-3.34,10.86,10.86,0,0,0-1.09-3,5.08,5.08,0,0,1,0-3.76,4.08,4.08,0,0,1,2.9-2.39" transform="translate(-172.5 -163)" style="fill:none;stroke:#00fff2;stroke-miterlimit:10"/></svg>