<svg id="Layer_1" data-name="Layer 1" xmlns="http://www.w3.org/2000/svg" viewBox="0 0 187 116.9"><title>MyLogo2</title><path d="M342.93,258.19a5.08,5.08,0,0,1-.07-.73q-.14-.66-.34-2.18t-.2-1.79c0-.09-.09-.22-.27-.4s-.32-.26-.41-.26h-.82q-.82.27-2.58.73a19.87,19.87,0,0,0-2,.6,3.43,3.43,0,0,0-.82.73c-.36.4-.59.6-.68.6a3.54,3.54,0,0,1-1.36.07l-1.36-.07a.4.4,0,0,0-.27.13,1.55,1.55,0,0,1-.41.26,5.11,5.11,0,0,1-.68.26h-4.08a3.19,3.19,0,0,0-1,.26,11.68,11.68,0,0,1-1.5.46l-1.57.4a6.1,6.1,0,0,1-.88.2h-4.76a2.15,2.15,0,0,0-.68.33c-.36.22-.64.38-.82.46s-.16.13-.2.13-.11,0-.2.13a.38.38,0,0,0-.14.26,2.55,2.55,0,0,0,0,1.19,7.85,7.85,0,0,1,.14,1.19,8,8,0,0,0-1.43.33,2.11,2.11,0,0,1-1.57.07c-.18,0-.41-.2-.68-.6a2.23,2.23,0,0,0-.68-.73h-2a2.42,2.42,0,0,0-.68.26,5.21,5.21,0,0,1-.68.26h-1.5a7,7,0,0,1-1-.13,2,2,0,0,1-1-.4c-.09,0-.3-.22-.61-.66a2.69,2.69,0,0,0-.75-.79l-1.43.07a3.86,3.86,0,0,1-1.43-.07,5.6,5.6,0,0,1-1-.26,5.9,5.9,0,0,0-1-.26,4.85,4.85,0,0,0-1,.2,6.67,6.67,0,0,0-1,.33,7.9,7.9,0,0,1-1.09.79q-.82.53-1.09.66a.4.4,0,0,1-.27.13l-.41-.13a4.74,4.74,0,0,1-1-1,5,5,0,0,0-1-1h-2.18a2.82,2.82,0,0,1-1,.33,5.85,5.85,0,0,1-1.09.2.4.4,0,0,1-.27.13h-.68a3.13,3.13,0,0,1-.61-.07,3,3,0,0,0-.48-.07,5.84,5.84,0,0,1-1.09-.2,6.3,6.3,0,0,1-1.09-.33l-2-1a11.84,11.84,0,0,1-2-1.13h-.68a6.65,6.65,0,0,1-.41.66,1.26,1.26,0,0,0-.27.66.92.92,0,0,1-.54-.2.56.56,0,0,1-.27-.46v-2a4.52,4.52,0,0,0-.54-.66l-.68-.66h-.68a1.16,1.16,0,0,0-.48.66,2.83,2.83,0,0,0-.2.66.92.92,0,0,1-.54-.2.56.56,0,0,1-.27-.46,2.11,2.11,0,0,1-.34-.66,2.74,2.74,0,0,1-.2-.66,7.6,7.6,0,0,1-.82-1.06q-.55-.79-.68-.79a3.68,3.68,0,0,0-.75-.53,1.91,1.91,0,0,0-.61-.26.59.59,0,0,1-.48-.26.78.78,0,0,1-.2-.4q-.14-.26-.34-.73a2.19,2.19,0,0,0-.34-.6.41.41,0,0,0-.27-.13c-.09,0-.13,0-.13.07s0,.07-.14.07h-.14a1,1,0,0,0-.48.26.72.72,0,0,0-.34.53c0-.09-.09-.22-.27-.4s-.27-.31-.27-.4v-.66a1.59,1.59,0,0,1,.27-.73,1.77,1.77,0,0,0,.27-.6c0-.09-.18-.22-.54-.4a3,3,0,0,1-.68-.4l-.14-.13V245a.12.12,0,0,1,.14-.13,2,2,0,0,1,.27-.79,3,3,0,0,1,.41-.66v-.26a.38.38,0,0,1,.14-.26h-1.5a.58.58,0,0,0-.07-.26.56.56,0,0,1-.07-.26v-.26a.56.56,0,0,1,.34-.46,1.19,1.19,0,0,1,.48-.2.4.4,0,0,0,.27-.13c.09-.09.16-.13.2-.13s.11,0,.2-.13l.54-.26-.54-1.19L263,240.79v-.66q.13-.79.41-2.58a11.56,11.56,0,0,1,.41-2.05,4.19,4.19,0,0,1,.27-1.06,5.48,5.48,0,0,0,.27-.93v-2.78a11.75,11.75,0,0,1,.34-1.65,11.27,11.27,0,0,1,.48-1.65v-2q0-.13-.41-.4t-.41-.4v-.53a3.55,3.55,0,0,1,.34-1.06c.23-.53.38-.88.48-1.06a.59.59,0,0,0-.07-.26.55.55,0,0,1-.07-.26,1.85,1.85,0,0,0,.41-.07,1.94,1.94,0,0,1,.41-.07,9.91,9.91,0,0,0,1.09.4,5.64,5.64,0,0,0,1,.26.85.85,0,0,0,.41-.2.57.57,0,0,0,.27-.46,11.49,11.49,0,0,1-.75-1.39l-.61-1.26a.16.16,0,0,1,0-.26.37.37,0,0,0,.14-.26h.27c.09,0,.14,0,.14-.07s0-.07.14-.07a8.1,8.1,0,0,0,1,.66q.88.53,1.16.66c0,.09.18.13.54.13h.41v-3a2.67,2.67,0,0,1,.82.2,1.09,1.09,0,0,0,.82.07l.82-.79q.13-.26.61-1.32a5.07,5.07,0,0,1,.75-1.32,8.34,8.34,0,0,1,.2-1,2.45,2.45,0,0,1,.48-1.13,5.14,5.14,0,0,0,.68-.26,1.08,1.08,0,0,1,.41-.13.4.4,0,0,0,.27-.13,2.67,2.67,0,0,0-.41-1,2.67,2.67,0,0,1-.41-1,4,4,0,0,1,.07-.66,3.92,3.92,0,0,0,.07-.53h.27a.28.28,0,0,0,.2-.07.28.28,0,0,1,.2-.07,2.05,2.05,0,0,0,.34.26,2.39,2.39,0,0,1,.34.26,4.15,4.15,0,0,0,.27,1.06,9.18,9.18,0,0,0,.41,1.06.79.79,0,0,0,.2.4c.14.18.25.26.34.26l.82-.66v-3.84a3.19,3.19,0,0,1-1-.33l-1-.46A3.64,3.64,0,0,1,277,204q-.34-1.06-.07-1.46a6.44,6.44,0,0,0-.75,1q-.48.73-.61,1a3.33,3.33,0,0,1-.34.53c-.14.18-.25.26-.34.26a1.15,1.15,0,0,1-.48-.66,2.44,2.44,0,0,1-.2-.79,4.79,4.79,0,0,1,0-1.72c.09-1,.14-1.59.14-1.85a4.08,4.08,0,0,1,1,.2c.45.13.72.16.82.07s.22-.09.41-.26a2.06,2.06,0,0,0,.41-.53v-1.32l-.82-.53v-1.46c0-.09-.16-.29-.48-.6a3.45,3.45,0,0,0-.75-.6l-.41-.13-.27.13a3.9,3.9,0,0,1-.14,1.65,3.65,3.65,0,0,1-.54,1.52,5.28,5.28,0,0,1-2,1,5,5,0,0,1-2.18.33,6.38,6.38,0,0,1-.2,1.13c-.14.57-.3.86-.48.86s-.32.11-.68.07l-.68-.07a2.73,2.73,0,0,0-.75.73c-.32.4-.52.64-.61.73a2.33,2.33,0,0,1-.75.33,2.36,2.36,0,0,0-.75.33c-.09.18-.3.53-.61,1.06a2.6,2.6,0,0,1-.75.93.4.4,0,0,1-.27.13h-.68a1,1,0,0,1-.41-.13,1.49,1.49,0,0,1-.41-.26l-.27-.26q-.27.27-1.43,1.52a5.68,5.68,0,0,0-1.29,1.79,3,3,0,0,0-.41.66,2.27,2.27,0,0,0-.27.66l-.41.4a1.56,1.56,0,0,1-.41.26,4.26,4.26,0,0,1-.27,1.06,5.33,5.33,0,0,0-.27.93,9.33,9.33,0,0,1-.75,1.06,9.24,9.24,0,0,0-.75,1.06,2,2,0,0,1-.2.73c-.14.31-.25.46-.34.46a8.34,8.34,0,0,0-.41,1.32c-.18.71-.32,1.19-.41,1.46a5.3,5.3,0,0,1-.14.73,10.29,10.29,0,0,0-.2,1.26,11.08,11.08,0,0,1-.2,1.26l-.08.37V247a5.56,5.56,0,0,1,.28,1.09,12.48,12.48,0,0,0,.34,1.46q.13.53.41,2.32c.18,1.19.32,2,.41,2.32a.93.93,0,0,0,.48.2,2.76,2.76,0,0,0,.48.07,3.13,3.13,0,0,0,.61-.07.94.94,0,0,0,.48-.2,2.69,2.69,0,0,0,.48-1.26,3,3,0,0,0,.07-1.39h.82l1.36,4.63h1.5a1,1,0,0,0-.48.26c-.23.18-.34.31-.34.4s0,.31-.07.66a6.56,6.56,0,0,0-.07.79v.79a1.13,1.13,0,0,0,.14.53,8,8,0,0,0,.34,1.92,5.23,5.23,0,0,0,.48,1.39,3.35,3.35,0,0,0,1,.4,4.46,4.46,0,0,0,1.09.26,9.06,9.06,0,0,0,1,.66,10.12,10.12,0,0,1,1,.66c0,.09,0,.13.14.13h.54a.12.12,0,0,0,.14-.13,12.44,12.44,0,0,1,.68-1.06,3.69,3.69,0,0,0,.54-.93c0-.09.11-.2.34-.33a2.68,2.68,0,0,0,.48-.33,9.65,9.65,0,0,1,1.5,1.59q1.09,1.32,1.36,1.72c0,.09,0,.31.07.66s.09.73.14,1.13.09.75.14,1.06a1.09,1.09,0,0,0,.2.6,6.69,6.69,0,0,0,1,.6c.54.31.91.51,1.09.6a11.94,11.94,0,0,0,1.36.46,6.27,6.27,0,0,0,1.5.33h1.36a2,2,0,0,0,.68-.4,2,2,0,0,1,.68-.4,5,5,0,0,1,1,1,8.51,8.51,0,0,1,.88,1.13c0,.09,0,.13.14.13h.54a.12.12,0,0,0,.14-.13.4.4,0,0,1,.27-.13.56.56,0,0,0,.41-.13,2.1,2.1,0,0,0,.54-.4c.27,0,.54.22.82.66a2.4,2.4,0,0,1,.34.79c.14.44.25.66.34.66a4.27,4.27,0,0,1,1.29.53,11.8,11.8,0,0,0,1.43.66l.41.13.27-.13c.18,0,.43-.18.75-.53s.52-.57.61-.66l1.36,1.19a3.05,3.05,0,0,0,.75-.66c.32-.35.57-.53.75-.53a2.2,2.2,0,0,0,.68-.33,5,5,0,0,0,.68-.46c.09,0,.23-.09.41-.26s.27-.31.27-.4a6.73,6.73,0,0,1,.75,1q.48.73.61,1l.48,1.39a5.19,5.19,0,0,1,.34,1.39l1.22-.79a10.2,10.2,0,0,1,.41,1.06,9.43,9.43,0,0,0,.41,1.06q0,.13.54.66c.36.35.63.53.82.53a3.31,3.31,0,0,0,.88.4l1.16.4h.54l.82-.79A8.72,8.72,0,0,0,304,279c1-.35,1.52-.57,1.7-.66a5.18,5.18,0,0,0,1-.93,11.83,11.83,0,0,0,1-1.19,3.25,3.25,0,0,0,.41-.66,2.92,2.92,0,0,1,.41-.66,2.33,2.33,0,0,0,.68-.13,2.27,2.27,0,0,1,.68-.13v-4.5l2.72-1.19c.18,0,.41.22.68.66a3.49,3.49,0,0,0,.27,1,10.12,10.12,0,0,0,.41,1c0,.09.11.22.34.4a1,1,0,0,0,.48.26,4.19,4.19,0,0,1,0-2.12.38.38,0,0,1,.14-.26c.09-.09.16-.13.2-.13s.11,0,.2-.13h.82a2.17,2.17,0,0,0,.61.33,2.25,2.25,0,0,0,.61.2c0,.09.11.24.34.46s.38.33.48.33a4.5,4.5,0,0,0,1.09.26c.54.09.86.22,1,.4a3.45,3.45,0,0,1,.48,1.59,14.63,14.63,0,0,1,.2,1.72,9.47,9.47,0,0,0,1.36-.66q.95-.53,2-1.06c.72-.35,1.43-.68,2.11-1s1.16-.51,1.43-.6h2.72A6.89,6.89,0,0,0,332,272a7.13,7.13,0,0,1,1.36.33,4.21,4.21,0,0,0,1.22-.86q.82-.73,1.7-1.65t1.57-1.72q.68-.79,1-1.19a6.24,6.24,0,0,0,.61-1.52c.22-.75-9.52-.74-9.29-1.58s10.38-2.46,10.51-3.25a11.62,11.62,0,0,0,.2-1.72H343A5.77,5.77,0,0,0,342.93,258.19Zm-86-24.22-.41.4H256l-.48-.4c-.23-.18-.34-.31-.34-.4v-.66a3.54,3.54,0,0,1,.34-1.06q.34-.79.48-.79l1.22,2.51A1.54,1.54,0,0,1,256.95,234Zm34.68,29.78c-.18.09-.27,0-.27-.33s.09-.42.27-.33.41.2.41.33S291.9,263.67,291.63,263.76Zm3.47,11.12s-.07,0-.07.13v.13a.81.81,0,0,1-.2.4c-.14.18-.25.26-.34.26a.12.12,0,0,1-.14.13h-.54a.12.12,0,0,1-.14-.13,9.14,9.14,0,0,1-.68-.93,12.36,12.36,0,0,1-.68-1.06h1.36l.82.4c.36.18.54.31.54.4a.12.12,0,0,1,.14.13C295.17,274.83,295.14,274.87,295.1,274.87Zm.75-12.44v-.79l.68.79ZM300,274.94s-.07.15-.07.33v.53l-.34,1.65c-.14.66-.25,1-.34,1h-.82v-.6a1.6,1.6,0,0,1,.14-.73,6.26,6.26,0,0,0,.34-1,6,6,0,0,1,.34-1,1.19,1.19,0,0,1,.82-.4A.27.27,0,0,1,300,274.94Zm.88-6.95a.76.76,0,0,1-.14.53,2.94,2.94,0,0,1-.68.73,4.49,4.49,0,0,1-.82.6,1.11,1.11,0,0,1-.48-.6,2,2,0,0,1-.2-.73q0-.4.68-.79a4.75,4.75,0,0,0,.88-.13,5.71,5.71,0,0,1,.75-.13Zm3.94,3c-.36,0-.54-.2-.54-.6s.18-.6.54-.6.54.2.54.6S305.19,271,304.82,271Zm13.06-5.29v.66a4,4,0,0,0-.34.4c-.14.18-.25.26-.34.26Zm.82,6q-.14,1.19-.14,1.46a.79.79,0,0,1-.2.4.6.6,0,0,1-.48.26.69.69,0,0,1-.48.13h-.48c0-.18,0-.53.07-1.06a3.28,3.28,0,0,1,.2-1.06,1.59,1.59,0,0,1,.27-.73,3.24,3.24,0,0,1,.41-.6,1,1,0,0,1,.48-.2,3,3,0,0,1,.48-.07C318.83,270.42,318.79,270.9,318.7,271.7Zm.54-5.29c-.36,0-.54-.22-.54-.66s.18-.66.54-.66a.66.66,0,1,1,0,1.32Zm2.18-2c-.27.09-.41,0-.41-.33s.14-.42.41-.33C321.87,264,321.87,264.24,321.42,264.42Zm7.48,8.07c-.36,0-.54-.24-.54-.73s.18-.73.54-.73.68.24.68.73S329.35,272.49,328.9,272.49Zm4.22-6.75a.27.27,0,0,1-.07.2.26.26,0,0,0-.07.2v.26c0,.09-.09.22-.27.4s-.32.26-.41.26-.2-.09-.34-.26a.78.78,0,0,1-.2-.4.37.37,0,0,1-.14-.26l.14-.4a.8.8,0,0,1,.2-.4c.14-.18.25-.26.34-.26l-6.64-.45C325.57,264.89,333.11,265.57,333.11,265.74Z" transform="translate(-156 -176.81)" style="fill:#fff"/><path d="M281.48,196.71l1,1.13.91,1a2.62,2.62,0,0,1,.33.86,4.71,4.71,0,0,1,.2,1.13v.66a6.69,6.69,0,0,1-.2,1.13,3,3,0,0,1-.33,1v1.19a.76.76,0,0,0,.26.53l.26.26a1,1,0,0,0,.39.13h.78a.37.37,0,0,0,.26-.13,1.24,1.24,0,0,0,.65-.26,4.26,4.26,0,0,0,.65-.53,3.08,3.08,0,0,0,1.11-.53c.56-.35.85-.57.85-.66q.52-.26,1.76-1.06l1.63-1.06a2.24,2.24,0,0,0,.65-.26c.35-.18.52-.31.52-.4s.24-.11.46-.33.33-.37.33-.46a1.58,1.58,0,0,0,.72-.26,1.77,1.77,0,0,1,.59-.26l1.37.07a2.62,2.62,0,0,0,1.24-.07,2.25,2.25,0,0,0,.65-.26,3,3,0,0,0,.65-.4,7.23,7.23,0,0,0,1.37-.33,11.09,11.09,0,0,0,1.37-.46,4.53,4.53,0,0,0,1.3-.53,5.94,5.94,0,0,0,1.3-.79,11.76,11.76,0,0,1,1.3-1l1.43-1c0,.18.17.33.52.46a2.73,2.73,0,0,0,.65.2,2.82,2.82,0,0,0,.72-.26,2.93,2.93,0,0,0,.72-.4h.65c.26.09.74.22,1.43.4a10.19,10.19,0,0,0,1.17.26l.72.4a3.46,3.46,0,0,1,.59.4,6.63,6.63,0,0,1,1.5,1.32c.65.71,1.06,1.15,1.24,1.32a2.6,2.6,0,0,1,.26,1,2.49,2.49,0,0,0,.26,1,7.6,7.6,0,0,0,1,.79,2.65,2.65,0,0,0,1,.53A.37.37,0,0,1,320,202a.52.52,0,0,0,.39-.13,5.9,5.9,0,0,0,.65-.4l1.3,1.32a.87.87,0,0,0,.65.26v-2c.17,0,.61,0,1.3-.13a13.94,13.94,0,0,1,1.43-.13,1.94,1.94,0,0,0,.52.4,2.19,2.19,0,0,0,.65.26,1.14,1.14,0,0,0,.46-.2.56.56,0,0,0,.33-.46v-4.1c-.09-.09-.33-.4-.72-.93a2.62,2.62,0,0,1-.59-1.06.74.74,0,0,1,.07-.66,1.11,1.11,0,0,1,.46-.53l2.74,1.19v-1.85a13.26,13.26,0,0,1-.33-1.39,6.57,6.57,0,0,0-.33-1.26h-.65q-.26-.13-.78-.46a2.08,2.08,0,0,0-.65-.33h-.52c-.09,0-.22-.09-.39-.26a1.43,1.43,0,0,1-.26-.4l-.72-.33a2.12,2.12,0,0,0-.59-.2v-3.57a1.79,1.79,0,0,0-.39.07,1.7,1.7,0,0,1-.39.07,2.29,2.29,0,0,0-.65.26,3,3,0,0,0-.65.4h-.65a3,3,0,0,0-.65-.73q-.52-.46-.65-.6L320,184l-.26.13a3,3,0,0,0-.39.66,2.32,2.32,0,0,0-.26.66,6.75,6.75,0,0,1-1.37.33,3.8,3.8,0,0,0-1.24.33,3.74,3.74,0,0,0-.59,1.32,2.44,2.44,0,0,0-.2,1.32h-.52a2.53,2.53,0,0,1-.72-.93,6,6,0,0,0-.72-1.06,6.16,6.16,0,0,1-.33-1,6.59,6.59,0,0,0-.33-1h-7a1.48,1.48,0,0,0,.13.66l.26.66a7.75,7.75,0,0,0,.78.6q.65.47.65.73a4.23,4.23,0,0,1-.52,1.46,3.6,3.6,0,0,1-.91,1.32H306l-.78-.79a2.1,2.1,0,0,1-.33-.6,2.22,2.22,0,0,0-.33-.6,6.1,6.1,0,0,1-.33-1.12,3,3,0,0,0-.33-1c-.09-.09-.32-.11-.72-.07l-.72.07-.26-.26c-.09,0-.13-.09-.13-.26a.12.12,0,0,0-.13-.13,5.14,5.14,0,0,0-1.24-.13,6.81,6.81,0,0,1-1.37-.13,11.75,11.75,0,0,1-1.69-.13v4.37l-1.69-2a2.34,2.34,0,0,1-.26.66,3.13,3.13,0,0,1-.39.66l-.65.66a11.12,11.12,0,0,1-1.43,1.12,4.49,4.49,0,0,0-1.17,1h-.78a4.71,4.71,0,0,0-1-.66,4.51,4.51,0,0,1-1-.66q0,.27-.2,1.59a5,5,0,0,1-.46,1.72.81.81,0,0,1-.2.4.56.56,0,0,1-.46.26h-2a2.22,2.22,0,0,1-.65-.66,2.29,2.29,0,0,0-.65-.66v3.57a1.77,1.77,0,0,0-.59.26q-.46.27-.72,0c-.09,0-.22-.18-.39-.53a2,2,0,0,1-.26-.79l-.26-.26a1.13,1.13,0,0,0-.26-.2,1,1,0,0,1-.26-.2h-.52l-.39.4a1.48,1.48,0,0,1-.39.26,1.15,1.15,0,0,0,.33.66A3.87,3.87,0,0,1,281.48,196.71Zm40.77.13a.58.58,0,0,1-.65.66c-.26,0-.39-.22-.39-.66s.13-.66.39-.66A.58.58,0,0,1,322.24,196.84Zm-1.17-4.63q.65,0,0,.66c-.26,0-.39-.15-.39-.46S320.81,192,321.07,192.21Zm-4.69-5.43c.17,0,.39.22.65.66v.79l-.39-.4c-.18-.18-.26-.31-.26-.4l-.13-.4Zm-13.81,4.76c.26,0,.39.22.39.66s-.13.66-.39.66a.66.66,0,0,1,0-1.32Zm-5.08-2.91c.26,0,.39,0,.39.13a2.94,2.94,0,0,1,.72.66,1.54,1.54,0,0,1,.46.79c0,.09-.07.18-.2.26a2.18,2.18,0,0,0-.33.26h-.65a1.59,1.59,0,0,0-.39-.26,1.41,1.41,0,0,1-.39-.26c0-.18,0-.46-.07-.86s-.07-.64-.07-.73Z" transform="translate(-156 -176.81)" style="fill:#fff"/><circle cx="92.99" cy="121.85" style="fill:#233140;stroke:#00adb4;stroke-miterlimit:10"/><circle cx="92.99" cy="121.85" style="fill:#233140;stroke:#00adb4;stroke-miterlimit:10"/><path d="M281.22,286.6a2.6,2.6,0,0,1-.19-.68c0-.11,0-.51.06-1.19a4.08,4.08,0,0,0-.06-1.36,12,12,0,0,0-.12-1.28q-.13-.93-.31-2.13c-.12-.79-.25-1.53-.37-2.21a9.37,9.37,0,0,1-.19-1.53,2.87,2.87,0,0,0-.25-.76,7.16,7.16,0,0,1-.37-1.11,9.73,9.73,0,0,1-.56-2,12.53,12.53,0,0,1-.31-1.79.33.33,0,0,1-.25-.17H278c-.08,0-.12-.06-.12-.17l-.5-.34a.54.54,0,0,1-.37-.51c-.33,0-.5-.23-.5-.68a5,5,0,0,1-.37-.68,5.74,5.74,0,0,0-.37-.68,2.31,2.31,0,0,0-.81.26,2.31,2.31,0,0,1-.81.25,5.7,5.7,0,0,1,.75-1.7,5.62,5.62,0,0,0,.75-1.7q-.25-.85-.62-2.47c-.25-1.08-.42-1.73-.5-2v-1.19c0-.11-.15-.31-.44-.6s-.4-.43-.31-.43a2.29,2.29,0,0,0-.5-1.87,4.38,4.38,0,0,1-.75-1.53v-2.55a2,2,0,0,1-.25-.51,1.94,1.94,0,0,1-.12-.68v-.85a.86.86,0,0,1,.12-.51,2.08,2.08,0,0,1,.25-.51c0-.23,0-.62.06-1.19s.06-1,.06-1.19a.67.67,0,0,0-.5.34c-.08,0-.21.09-.37.26a.7.7,0,0,0-.25.43,2.17,2.17,0,0,0-.56.85q-.31.68-.44,1a9.44,9.44,0,0,1-.62-1,2.68,2.68,0,0,0-.62-.85l-.5-.68a.56.56,0,0,1-.12-.34v-.34a1,1,0,0,1,.06-.34,1,1,0,0,0,.06-.34,9.68,9.68,0,0,1,1.37-.94,9.55,9.55,0,0,0,1.37-.93.79.79,0,0,0-.19-.43l-.31-.43h-.37c-.42,0-.62-.23-.62-.68a3.76,3.76,0,0,0,.12-.85,1.77,1.77,0,0,0-.12-.85,12.28,12.28,0,0,0-1.12-.6q-.87-.42-.87-.6a5.26,5.26,0,0,1-.37-2,11.79,11.79,0,0,0-.25-2,2,2,0,0,1-.5-.51c-.08,0-.21-.11-.37-.34a.34.34,0,0,0-.25-.17q-.13-.34-.44-1.36c-.21-.68-.35-1.13-.44-1.36l-.25-.34-.25-.34a1.36,1.36,0,0,1-.44-.68,3.2,3.2,0,0,0-.31-.68v-1.19a1.37,1.37,0,0,1,.62-.34,1.34,1.34,0,0,0,.62-.34v-.51a6.2,6.2,0,0,0-1.06-1.36,6.07,6.07,0,0,1-1.06-1.36c-.08,0-.21-.17-.37-.51a2,2,0,0,1-.25-.68v-3.91a3.13,3.13,0,0,0-.5-.94,2.5,2.5,0,0,1-.5-1.11,10,10,0,0,1-.25-1.87,10.42,10.42,0,0,0-.25-1.87,2.65,2.65,0,0,1-.37-.68.5.5,0,0,1-.12-.25.54.54,0,0,0-.12-.25l-.12-.17a15.56,15.56,0,0,0-.19-1.62,15.36,15.36,0,0,1-.19-1.61v-1.19q-.13-.85-.44-2.13a9.51,9.51,0,0,1-.31-1.62l-.25-.51q-.13-.34-.44-1.11a4,4,0,0,1-.31-.94,2.07,2.07,0,0,1-.25-.68,2.22,2.22,0,0,0-.25-.68l-.62-2.13a8.15,8.15,0,0,1-.37-1.62h-1.12a2.59,2.59,0,0,1-.25-.42,3,3,0,0,0-.25-.43,10.21,10.21,0,0,1-.31-1.19,6.55,6.55,0,0,1-.19-1.19q0-.17-.06-1.11c0-.62-.06-1.11-.06-1.45s0-.6.06-1.11.06-.82.06-.93a3.25,3.25,0,0,1,.44-.94,8.73,8.73,0,0,0,.56-1.11,2.6,2.6,0,0,1,.19-.68c.12-.34.27-.51.44-.51a.65.65,0,0,1,.5-.43,3,3,0,0,1,.62-.08c0-.11,0-.17-.12-.17s-.21-.11-.37-.34a.56.56,0,0,1-.12-.34l-1,.08a2,2,0,0,1-1.12-.08.33.33,0,0,1-.25-.17.56.56,0,0,1-.12-.34,3.34,3.34,0,0,0-.44-.77,1.33,1.33,0,0,1-.31-.76l-4.28-2.33v34l0,.13a17.27,17.27,0,0,0,.81,2.81,13,13,0,0,1,.68,2.3q.25.68.69,2t.87,2.47q.43,1.19.75,2.21a5.92,5.92,0,0,0,.44,1.19,3.05,3.05,0,0,0,.5.93c.33.51.54.82.62.94a8.75,8.75,0,0,0,.12.94c.08.51.21.82.37.93a5.24,5.24,0,0,1,.56,1.28q.31.94.44,1.28a3,3,0,0,1,.62.68,1.7,1.7,0,0,1,.37.68,13.91,13.91,0,0,1,1.06,2,6,6,0,0,1,.69,2,4.12,4.12,0,0,1,.31,1.79q.06,1.45.06,1.79h-1.12c-.08,0-.56-.11-1.43-.34a10.64,10.64,0,0,0-1.56-.34,8.26,8.26,0,0,0-1.62.34,13.3,13.3,0,0,1-1.37.34h-2.91v11.73h1c.25,0,.66,0,1.25-.08l1-.09q.25,0,.81-.51a8.83,8.83,0,0,1,.81-.68h1a2.3,2.3,0,0,1,.56.68c.21.34.35.51.44.51H257a10.07,10.07,0,0,0,1.43-.6,6.88,6.88,0,0,1,1.56-.6,4.51,4.51,0,0,1,.93.43,3.25,3.25,0,0,1,1.06.76,9.39,9.39,0,0,0,.93,1,3.61,3.61,0,0,1,.81,1v1.36a11.51,11.51,0,0,0,.12,1.28,6.86,6.86,0,0,0,.25,1.28l.31.43c.12.17.23.25.31.25v.51c.08.23.19.6.31,1.11a5.36,5.36,0,0,1,.19,1.11l.25,1q.25,1.19.37,1.19.12.68.44,2t.62,2.64q.31,1.36.56,2.55a13.8,13.8,0,0,0,.37,1.53,3.55,3.55,0,0,1,.31.94q.19.76.44,1.53l.5,1.53a4.88,4.88,0,0,1,.25.94,4,4,0,0,0,.31.93,4.12,4.12,0,0,1,.31.94,10.43,10.43,0,0,1,.81,2,10.15,10.15,0,0,0,.81,2,10.74,10.74,0,0,0,.25,1.28,5.39,5.39,0,0,0,.37,1.28l.25.68a1.69,1.69,0,0,1,.12.51c0,.11.14.11.44,0s.48-.11.56,0a1.52,1.52,0,0,0,.37.34,1.5,1.5,0,0,1,.37.34v.68a.78.78,0,0,0-.37.17.82.82,0,0,1-.37.17v1c.08.11.21.31.37.6s.29.48.37.6a1.82,1.82,0,0,0,.5.85,1.54,1.54,0,0,0,.37.34c0,.23.21.17.62-.17l.5-.34a3.48,3.48,0,0,0,.75-.26,5.37,5.37,0,0,0,.87-.43c.08,0,.19-.17.31-.51a2.6,2.6,0,0,0,.19-.68q.12-.34,1.56-1.19a10.28,10.28,0,0,0,1.56-1v-1.36Q281.41,287.11,281.22,286.6Zm-29.7-41.66c0-.34.12-.51.37-.51s.37.17.37.51Q251.9,245.45,251.52,244.94Zm8.47,0q-.25.34-.5,0c0-.34.1-.51.31-.51S260.07,244.6,260,244.94Zm0-.68q-.37,0-.37-.76t.37-.77q.37,0,.37.77T260,244.26Z" transform="translate(-156 -176.81)" style="fill:#00fff2;stroke:#233140;stroke-miterlimit:10"/><path d="M172.23,194.49a.77.77,0,0,1,.07.69,2.73,2.73,0,0,1-.61,1.1c-.4.55-.65.88-.74,1v4.28a.58.58,0,0,0,.34.48,1.17,1.17,0,0,0,.47.21,2.25,2.25,0,0,0,.67-.28,2,2,0,0,0,.54-.41,14.28,14.28,0,0,1,1.48.14c.72.09,1.17.14,1.35.14v2.07a.9.9,0,0,0,.67-.28l1.35-1.38a6.2,6.2,0,0,0,.67.41.54.54,0,0,0,.4.14.39.39,0,0,1,.27.14,2.73,2.73,0,0,0,1.08-.55,7.75,7.75,0,0,0,1.08-.83,2.6,2.6,0,0,0,.27-1,2.71,2.71,0,0,1,.27-1q.27-.27,1.28-1.38a6.86,6.86,0,0,1,1.55-1.38,3.57,3.57,0,0,1,.61-.41l.74-.41a10.46,10.46,0,0,0,1.21-.28c.72-.18,1.21-.32,1.48-.41h.67a3,3,0,0,0,.74.41,2.9,2.9,0,0,0,.74.28,2.81,2.81,0,0,0,.67-.21c.36-.14.54-.3.54-.48l1.48,1a12.27,12.27,0,0,1,1.35,1,6.14,6.14,0,0,0,1.35.83,4.64,4.64,0,0,0,1.35.55,11.39,11.39,0,0,0,1.41.48,7.39,7.39,0,0,0,1.41.35,3.11,3.11,0,0,0,.67.41,2.31,2.31,0,0,0,.67.28c.09.09.52.12,1.28.07l1.41-.07a1.81,1.81,0,0,1,.61.28,1.63,1.63,0,0,0,.74.28c0,.09.11.25.34.48s.38.35.47.35.18.23.54.41a2.29,2.29,0,0,0,.67.28l1.68,1.1q1.28.83,1.82,1.1,0,.14.88.69a3.16,3.16,0,0,0,1.14.55,4.41,4.41,0,0,0,.67.55,1.28,1.28,0,0,0,.67.28.39.39,0,0,0,.27.14h.81a1,1,0,0,0,.4-.14l.27-.28a.79.79,0,0,0,.27-.55v-1.24a3.09,3.09,0,0,1-.34-1,7,7,0,0,1-.2-1.17v-.69a5,5,0,0,1,.2-1.17,2.73,2.73,0,0,1,.34-.9l.94-1q.81-.9,1.08-1.17a4,4,0,0,1,.47-.69,1.2,1.2,0,0,0,.34-.69,1.54,1.54,0,0,1-.4-.28l-.4-.41h-.54a1,1,0,0,1-.27.21,1.16,1.16,0,0,0-.27.21l-.27.28a2.12,2.12,0,0,1-.27.83c-.18.37-.31.55-.4.55-.18.19-.42.19-.74,0a1.81,1.81,0,0,0-.61-.28v-3.73a2.37,2.37,0,0,0-.67.69,2.29,2.29,0,0,1-.67.69h-2a.58.58,0,0,1-.47-.28.84.84,0,0,1-.2-.41,5.24,5.24,0,0,1-.47-1.79q-.2-1.38-.2-1.66a4.65,4.65,0,0,1-1,.69,4.87,4.87,0,0,0-1,.69h-.81a4.64,4.64,0,0,0-1.21-1,11.56,11.56,0,0,1-1.48-1.17l-.67-.69a3.24,3.24,0,0,1-.4-.69,2.44,2.44,0,0,1-.27-.69l-1.75,2.07V185.1a12,12,0,0,1-1.75.14,7,7,0,0,1-1.41.14,5.27,5.27,0,0,0-1.28.14.12.12,0,0,0-.14.14c0,.19,0,.28-.13.28l-.27.28-.74-.07c-.4,0-.65,0-.74.07a3.17,3.17,0,0,0-.34,1,6.42,6.42,0,0,1-.34,1.17,2.3,2.3,0,0,0-.34.62,2.19,2.19,0,0,1-.34.62l-.81.83h-.54a3.77,3.77,0,0,1-.94-1.38,4.44,4.44,0,0,1-.54-1.52q0-.27.67-.76a7.8,7.8,0,0,0,.81-.62l.27-.69a1.56,1.56,0,0,0,.13-.69H186a6.84,6.84,0,0,0-.34,1,6.48,6.48,0,0,1-.34,1,6.22,6.22,0,0,0-.74,1.1,2.63,2.63,0,0,1-.74,1h-.54a2.56,2.56,0,0,0-.2-1.38,1.64,1.64,0,0,0-1.89-1.72,6.93,6.93,0,0,1-1.41-.35,2.43,2.43,0,0,0-.27-.69,3.21,3.21,0,0,0-.4-.69l-.27-.14-.4.14c-.09.09-.31.3-.67.62a3.1,3.1,0,0,0-.67.76h-.67a3.16,3.16,0,0,0-.67-.41,2.34,2.34,0,0,0-.67-.28,1.73,1.73,0,0,1-.4-.07,1.84,1.84,0,0,0-.4-.07v3.73a2.17,2.17,0,0,0-.61.21L173,189a1.5,1.5,0,0,1-.27.41c-.18.19-.31.28-.4.28h-.54a2.13,2.13,0,0,0-.67.35q-.54.35-.81.48h-.67a7,7,0,0,0-.34,1.31,14.07,14.07,0,0,1-.34,1.45v1.93l2.83-1.24A1.15,1.15,0,0,1,172.23,194.49Zm25.32-4.83a3.07,3.07,0,0,1,.74-.69c0-.09.13-.14.4-.14h.54c0,.09,0,.35-.07.76s-.07.71-.07.9a1.47,1.47,0,0,1-.4.28,1.63,1.63,0,0,0-.4.28h-.67a2.28,2.28,0,0,0-.34-.28c-.13-.09-.2-.18-.2-.28A1.61,1.61,0,0,1,197.55,189.66Zm-4.11,2.21a.69.69,0,0,1,0,1.38c-.27,0-.4-.23-.4-.69S193.18,191.87,193.44,191.87Zm-15-3.87v-.41q.4-.69.67-.69l.13.28-.13.41c0,.09-.09.23-.27.41l-.4.41Zm-4.18,4.55q.4-.27.4.21c0,.32-.13.48-.4.48Q173.65,192.56,174.32,192.56Zm-.54,4.14q.4,0,.4.69c0,.46-.14.69-.4.69a.69.69,0,0,1,0-1.38Z" transform="translate(-156 -176.81)" style="fill:#fff"/><path d="M246.11,225.41a9.5,9.5,0,0,1-.4-1.45,9.8,9.8,0,0,1-.27-1.45,5.43,5.43,0,0,0-.13-.76,12.12,12.12,0,0,1-.2-1.31,11.23,11.23,0,0,0-.2-1.31,5.8,5.8,0,0,1-.13-.76c-.09-.28-.22-.78-.4-1.52a9,9,0,0,0-.4-1.38c-.09,0-.2-.16-.34-.48a2.13,2.13,0,0,1-.2-.76,9.65,9.65,0,0,0-.74-1.1,9.75,9.75,0,0,1-.74-1.1,5.79,5.79,0,0,0-.27-1,4.64,4.64,0,0,1-.27-1.1,1.54,1.54,0,0,1-.4-.28l-.4-.41a2.44,2.44,0,0,0-.27-.69,3.2,3.2,0,0,0-.4-.69,5.94,5.94,0,0,0-1.28-1.86q-1.14-1.31-1.41-1.59l-.27.28a1.47,1.47,0,0,1-.4.28,1,1,0,0,1-.4.14h-.67a.39.39,0,0,1-.27-.14,2.68,2.68,0,0,1-.74-1c-.31-.55-.52-.92-.61-1.1a2.28,2.28,0,0,0-.74-.35,2.26,2.26,0,0,1-.74-.35c-.09-.09-.29-.35-.61-.76a2.78,2.78,0,0,0-.74-.76l-.67.07c-.36,0-.58,0-.67-.07s-.34-.3-.47-.9a7,7,0,0,1-.2-1.17,4.74,4.74,0,0,1-2.16-.34,5.13,5.13,0,0,1-2-1,3.92,3.92,0,0,1-.54-1.59,4.27,4.27,0,0,1-.14-1.73l-.27-.14-.4.14a3.45,3.45,0,0,0-.74.62q-.47.48-.47.62v1.52l-.81.55v1.38a2.17,2.17,0,0,0,.4.55c.18.19.32.28.4.28s.36.07.81-.07a3.86,3.86,0,0,1,.94-.21c0,.28,0,.92.13,1.93a5.26,5.26,0,0,1,0,1.79,2.68,2.68,0,0,1-.2.83,1.19,1.19,0,0,1-.47.69c-.09,0-.2-.09-.34-.28a3.59,3.59,0,0,1-.34-.55q-.13-.27-.61-1a6.65,6.65,0,0,0-.74-1,2,2,0,0,1-.07,1.52,3.88,3.88,0,0,1-.61,1.38l-1,.48a3,3,0,0,1-1,.35v4l.81.69c.09,0,.2-.09.34-.28a.84.84,0,0,0,.2-.41,9.85,9.85,0,0,0,.4-1.1,4.53,4.53,0,0,0,.27-1.1,2.35,2.35,0,0,1,.34-.28,2,2,0,0,0,.34-.28.27.27,0,0,1,.2.07.27.27,0,0,0,.2.07h.27a4.49,4.49,0,0,0,.07.55,4.26,4.26,0,0,1,.07.69,2.86,2.86,0,0,1-.4,1,2.89,2.89,0,0,0-.4,1,.39.39,0,0,0,.27.14,1,1,0,0,1,.4.14,5,5,0,0,0,.67.28,2.62,2.62,0,0,1,.47,1.17,9.09,9.09,0,0,1,.2,1,5.33,5.33,0,0,1,.74,1.38q.47,1.11.61,1.38l.81.83a1,1,0,0,0,.81-.07,2.55,2.55,0,0,1,.81-.21v3.17h.4c.36,0,.54,0,.54-.14q.27-.14,1.15-.69a8,8,0,0,0,1-.69c.09,0,.13,0,.13.07s0,.07.14.07h.27a.4.4,0,0,0,.14.28.17.17,0,0,1,0,.28l-.61,1.31a12.14,12.14,0,0,1-.74,1.45.6.6,0,0,0,.27.48.82.82,0,0,0,.4.21,5.34,5.34,0,0,0,.94-.28,9.51,9.51,0,0,0,1.08-.41,1.83,1.83,0,0,1,.4.07,1.74,1.74,0,0,0,.4.07.6.6,0,0,1-.07.28.64.64,0,0,0-.07.28c.09.19.25.55.47,1.1a3.85,3.85,0,0,1,.34,1.1v.55q0,.14-.4.41t-.4.41v2.07a12.22,12.22,0,0,1,.47,1.72,12.83,12.83,0,0,1,.34,1.73v2.9a6,6,0,0,0,.27,1,4.56,4.56,0,0,1,.27,1.1,12.61,12.61,0,0,1,.4,2.14q.27,1.86.4,2.69v.69l-2.83-1.24-.54,1.24.54.28c.09.09.16.14.2.14s.11,0,.2.14a.39.39,0,0,0,.27.14,1.14,1.14,0,0,1,.47.21.58.58,0,0,1,.34.48v.28a.61.61,0,0,1-.07.28.63.63,0,0,0-.07.28h-1.48a.4.4,0,0,1,.14.28v.28a3.2,3.2,0,0,1,.4.69,2.13,2.13,0,0,1,.27.83.12.12,0,0,1,.13.14v.28l-.13.14a3,3,0,0,1-.67.41c-.36.19-.54.32-.54.41a1.89,1.89,0,0,0,.27.62,1.72,1.72,0,0,1,.27.76v.69c0,.09-.09.23-.27.41s-.27.32-.27.41a.75.75,0,0,0-.34-.55,1,1,0,0,0-.47-.28h-.14c-.09,0-.13,0-.13-.07s0-.07-.13-.07a.39.39,0,0,0-.27.14,2.33,2.33,0,0,0-.34.62c-.13.32-.25.58-.34.76a.84.84,0,0,1-.2.41.57.57,0,0,1-.47.28,1.84,1.84,0,0,0-.61.28,3.64,3.64,0,0,0-.74.55c-.09,0-.31.28-.67.83a8,8,0,0,1-.81,1.1,3,3,0,0,1-.2.69,2.25,2.25,0,0,1-.34.69.59.59,0,0,1-.27.48.88.88,0,0,1-.54.21,3,3,0,0,0-.2-.69,1.21,1.21,0,0,0-.47-.69h-.67l-.67.69a4.75,4.75,0,0,0-.54.69v2.07a.59.59,0,0,1-.27.48.88.88,0,0,1-.54.21,1.35,1.35,0,0,0-.27-.69,6.88,6.88,0,0,1-.4-.69h-.67a11.53,11.53,0,0,1-2,1.17l-2,1a6,6,0,0,1-1.08.35,5.53,5.53,0,0,1-1.08.21,2.84,2.84,0,0,0-.47.07,3,3,0,0,1-.61.07h-.67a.39.39,0,0,1-.27-.14A5.56,5.56,0,0,1,211,260a2.71,2.71,0,0,1-.94-.35h-2.16a5.06,5.06,0,0,0-1,1,4.82,4.82,0,0,1-1,1l-.4.14a.39.39,0,0,1-.27-.14,12.73,12.73,0,0,1-1.08-.69,8,8,0,0,1-1.08-.83,6.34,6.34,0,0,0-1-.34,4.59,4.59,0,0,0-1-.21,5.63,5.63,0,0,0-.94.28,5.34,5.34,0,0,1-.94.28,3.64,3.64,0,0,1-1.41.07l-1.41-.07a2.74,2.74,0,0,0-.74.83c-.31.46-.52.69-.61.69a1.9,1.9,0,0,1-1,.41,6.58,6.58,0,0,1-1,.14h-1.48a5,5,0,0,1-.67-.28,2.33,2.33,0,0,0-.67-.28h-2a2.27,2.27,0,0,0-.67.76c-.27.41-.49.62-.67.62q-.4.28-1.55-.07a7.56,7.56,0,0,0-1.41-.34,8.74,8.74,0,0,1,.13-1.24,2.8,2.8,0,0,0,0-1.24.4.4,0,0,0-.13-.28c-.09-.09-.16-.14-.2-.14s-.11,0-.2-.14-.45-.25-.81-.48a2.09,2.09,0,0,0-.67-.35h-4.71a5.8,5.8,0,0,1-.88-.21l-1.55-.41a11.12,11.12,0,0,1-1.48-.48,3,3,0,0,0-.94-.28h-4a4.91,4.91,0,0,1-.67-.28,1.54,1.54,0,0,1-.4-.28.39.39,0,0,0-.27-.14l-1.35.07a3.34,3.34,0,0,1-1.35-.07q-.13,0-.67-.62a3.44,3.44,0,0,0-.81-.76,18.92,18.92,0,0,0-2-.62q-1.75-.48-2.56-.76h-.81c-.09,0-.22.09-.4.28s-.27.32-.27.41-.07.81-.2,1.86-.25,1.82-.34,2.28a5.66,5.66,0,0,1-.07.76c0,.32-.07.53-.07.62h2.16a12.64,12.64,0,0,0,.2,1.79q.2,1.24.54,2.55t.67,2.48a6.7,6.7,0,0,0,.61,1.59q.27.41.94,1.24t1.55,1.79q.88,1,1.68,1.73a4.16,4.16,0,0,0,1.21.9,6.75,6.75,0,0,1,1.35-.35,6.55,6.55,0,0,0,1.35-.35H171q.4.14,1.41.62c.67.32,1.37.67,2.09,1s1.39.74,2,1.1a9.13,9.13,0,0,0,1.35.69,16.28,16.28,0,0,1,.2-1.79,3.75,3.75,0,0,1,.47-1.66q.14-.27.94-.41a4.28,4.28,0,0,0,1.08-.28c.09,0,.25-.11.47-.35s.34-.39.34-.48a2.14,2.14,0,0,0,.61-.21,2.12,2.12,0,0,0,.61-.35h.81c.09.09.16.14.2.14s.11,0,.2.14a.4.4,0,0,1,.13.28,4.6,4.6,0,0,1,0,2.21,1,1,0,0,0,.47-.28c.23-.18.34-.32.34-.41a11.11,11.11,0,0,0,.4-1,3.79,3.79,0,0,0,.27-1c.27-.46.49-.69.67-.69l2.69,1.24v4.69a2.14,2.14,0,0,1,.67.14,2.21,2.21,0,0,0,.67.14,3.1,3.1,0,0,1,.4.69,3.39,3.39,0,0,0,.4.69,12.17,12.17,0,0,0,1,1.24,5.28,5.28,0,0,0,1,1q.27.14,1.68.69a8.3,8.3,0,0,0,1.68.55l.81.83h.54l1.14-.41a3.21,3.21,0,0,0,.88-.41c.18,0,.45-.19.81-.55s.54-.6.54-.69a10.25,10.25,0,0,0,.4-1.1,10.8,10.8,0,0,1,.4-1.1l1.21.83a5.68,5.68,0,0,1,.34-1.45l.47-1.45q.14-.28.61-1a7,7,0,0,1,.74-1c0,.09.09.23.27.41s.32.28.4.28a5,5,0,0,0,.67.48,2.13,2.13,0,0,0,.67.35q.27,0,.74.55a3.07,3.07,0,0,0,.74.69l1.35-1.24q.14.14.61.69c.32.37.56.55.74.55l.27.14.4-.14a11.37,11.37,0,0,0,1.41-.69,4.1,4.1,0,0,1,1.28-.55c.09,0,.2-.23.34-.69a2.55,2.55,0,0,1,.34-.83c.27-.46.54-.69.81-.69a2.07,2.07,0,0,0,.54.41.54.54,0,0,0,.4.14.38.38,0,0,1,.27.14.12.12,0,0,0,.14.14h.54a.12.12,0,0,0,.13-.14,8.93,8.93,0,0,1,.88-1.17,5.05,5.05,0,0,1,1-1,1.94,1.94,0,0,1,.67.41,2,2,0,0,0,.67.41h1.35a5.94,5.94,0,0,0,1.48-.35,11.5,11.5,0,0,0,1.35-.48c.18-.09.54-.3,1.08-.62a6.64,6.64,0,0,0,.94-.62,1.18,1.18,0,0,0,.2-.62q.07-.48.13-1.1c0-.41.09-.8.13-1.17s.07-.6.07-.69q.27-.41,1.35-1.79a9.89,9.89,0,0,1,1.48-1.66,2.64,2.64,0,0,0,.47.35c.22.14.34.25.34.35a3.91,3.91,0,0,0,.54,1c.36.55.59.92.67,1.1a.12.12,0,0,0,.13.14h.54a.12.12,0,0,0,.13-.14,10,10,0,0,1,.94-.69,9,9,0,0,0,.94-.69,4.24,4.24,0,0,0,1.08-.28,3.23,3.23,0,0,0,.94-.41,5.64,5.64,0,0,0,.47-1.45,8.72,8.72,0,0,0,.34-2,1.23,1.23,0,0,0,.14-.55v-.83a7.2,7.2,0,0,0-.07-.83c0-.37-.07-.6-.07-.69s-.11-.23-.34-.41a1,1,0,0,0-.47-.28h1.48l1.35-4.83h.81a3.31,3.31,0,0,0,.07,1.45,2.89,2.89,0,0,0,.47,1.31.91.91,0,0,0,.47.21,3,3,0,0,0,.61.07,2.61,2.61,0,0,0,.47-.07.89.89,0,0,0,.47-.21c.09-.37.23-1.17.4-2.42s.32-2,.4-2.42a13.6,13.6,0,0,0,.34-1.52,3.9,3.9,0,0,1,.34-1.24c0-.18.18-.35.54-.48l.27-.09V225.68Zm-83.37,41.82a.84.84,0,0,1-.2.41c-.13.19-.25.28-.34.28s-.22-.09-.4-.28-.27-.32-.27-.41V267a.28.28,0,0,0-.07-.21.29.29,0,0,1-.07-.21,2.3,2.3,0,0,0-.13-.69h.94c.09,0,.2.09.34.28a.86.86,0,0,1,.2.41l.14.41A.4.4,0,0,1,162.73,267.23Zm2.83,6.35c-.45,0-.67-.25-.67-.76s.22-.76.67-.76.54.25.54.76S165.92,273.58,165.56,273.58Zm7.41-8.42c-.45-.18-.45-.41,0-.69q.4-.14.4.34C173.38,265.14,173.24,265.25,173,265.16Zm3.5,1.79v-.41l.67,1.38c-.09,0-.2-.09-.34-.28a4.09,4.09,0,0,0-.34-.41Zm-2-.41a.6.6,0,0,1,.67-.69q.54,0,.54.69c0,.46-.18.69-.54.69A.6.6,0,0,1,174.45,266.54Zm2.49,8.56a.65.65,0,0,1-.47-.14.58.58,0,0,1-.47-.28.84.84,0,0,1-.2-.41q0-.28-.13-1.52c-.09-.83-.13-1.33-.13-1.52a2.84,2.84,0,0,1,.47.07.93.93,0,0,1,.47.21,3.42,3.42,0,0,1,.4.62,1.72,1.72,0,0,1,.27.76,3.59,3.59,0,0,1,.2,1.1c0,.55.07.92.07,1.1Zm12.46-3c-.36,0-.54-.21-.54-.62s.18-.62.54-.62.54.21.54.62S189.76,272.06,189.4,272.06Zm4-2.62a.82.82,0,0,1-.13-.55v-.55a5.4,5.4,0,0,1,.74.14,4.47,4.47,0,0,0,.88.14c.45.28.67.55.67.83a2.13,2.13,0,0,1-.2.76,1.15,1.15,0,0,1-.47.62,4.44,4.44,0,0,1-.81-.62A3,3,0,0,1,193.44,269.44Zm2.29,10.35h-.81c-.09,0-.2-.35-.34-1l-.34-1.73v-.55c0-.19,0-.3-.07-.35a.29.29,0,0,1-.07-.21,1.16,1.16,0,0,1,.81.41,6.49,6.49,0,0,1,.34,1,7,7,0,0,0,.34,1,1.74,1.74,0,0,1,.13.76Zm2.56-16.7h-.67l.67-.83Zm2.83,13a9.46,9.46,0,0,1-.67,1,.12.12,0,0,1-.13.14h-.54a.12.12,0,0,1-.13-.14c-.09,0-.2-.09-.34-.28a.86.86,0,0,1-.2-.41v-.14c0-.09,0-.14-.07-.14s-.07,0-.07-.14a.12.12,0,0,1,.13-.14c0-.09.18-.23.54-.41l.81-.41h1.35Q201.66,275.23,201.12,276.06Zm1.35-11.59c-.27-.09-.4-.21-.4-.35s.14-.25.4-.35.27,0,.27.35S202.65,264.56,202.47,264.47Zm36.1-31.75V233c0,.09-.11.23-.34.41s-.38.32-.47.41h-.54l-.4-.41a1.61,1.61,0,0,1-.27-.41l1.21-2.62q.14,0,.47.83a3.84,3.84,0,0,1,.34,1.1Z" transform="translate(-156 -176.81)" style="fill:#fff"/><path d="M245.35,241.64a2,2,0,0,1-.51-.5,2.93,2.93,0,0,1-.64-.67v-.84a6,6,0,0,1,.32-1.09q.32-.92.44-1.26a2.7,2.7,0,0,0-.13-.75,2.37,2.37,0,0,1-.13-.59h-.51l-1,2.52a6.33,6.33,0,0,1-.19-1.51c0-.78-.06-1.28-.06-1.51s0-.45-.06-1-.06-.95-.06-1.17v-1.51a2.38,2.38,0,0,1,.13-.84,4.38,4.38,0,0,1,.06-.59,1.35,1.35,0,0,1,.19-.59,2.54,2.54,0,0,0,.57-.59l.44-.59c.08,0,.23.14.44.42a1.31,1.31,0,0,1,.32.75q0,.34-.06,1.51a4.64,4.64,0,0,0,.06,1.51c0,.45.13.67.38.67a4.57,4.57,0,0,1,.19-.84c.13-.45.23-.78.32-1a.28.28,0,0,1,.13-.25.9.9,0,0,0,.25-.42,2.1,2.1,0,0,0,.25-.5l.25-.34.25-.34a6.9,6.9,0,0,0,.63-1.93,13.15,13.15,0,0,0,.38-1.93l.25-.34.25-.34a2.11,2.11,0,0,1-.57-.84,2.65,2.65,0,0,1-.32-1v-2a4.08,4.08,0,0,0-1.14-.59,3.88,3.88,0,0,1-1.14-.59l-.51-2h1.65a3.44,3.44,0,0,0,.13.67,1.07,1.07,0,0,0,.38.67h.63a.56.56,0,0,1,.13-.34l.25-.34h.51l.58.35V178.29h0c-.21.28-.4.42-.57.42a1.92,1.92,0,0,1-.7.76l-.83.59a2.65,2.65,0,0,0-.38.67,1.88,1.88,0,0,0-.13.67h-1.14a8.9,8.9,0,0,1-.64,1.17,2.92,2.92,0,0,0-.51,1.17c0,.11,0,.39.06.84s.11.92.19,1.43a12.86,12.86,0,0,0,.32,1.43,4.53,4.53,0,0,1,.19.84V189a4,4,0,0,0-.51,1.09,4.53,4.53,0,0,0-.25.92,2,2,0,0,1-.7.42,2.87,2.87,0,0,1-.7.25,1.2,1.2,0,0,0,.13.67l.25,1.17c-.09.23-.23.56-.44,1s-.44.67-.7.67a1.21,1.21,0,0,1-1,.5v3a4.83,4.83,0,0,1-.76-.17,1.19,1.19,0,0,0-.89,0c-.25,0-.38.23-.38.67v5c0,.11-.23.31-.7.59a7.61,7.61,0,0,0-1.08.75.89.89,0,0,1-.76.34c0,.11,0,.34-.06.67a6.64,6.64,0,0,0-.06.84,4.62,4.62,0,0,1-.25.92,3.92,3.92,0,0,0-.25,1.09c-.09,0-.21.11-.38.34a.35.35,0,0,1-.25.17,2.46,2.46,0,0,1-.19.67c-.13.34-.28.5-.44.5a10.11,10.11,0,0,1-1.08,1.09,3.88,3.88,0,0,0-1,1.09.78.78,0,0,1-.32.25.27.27,0,0,0-.19.25v2l.51.67a3.89,3.89,0,0,0,.7,1.09,7,7,0,0,1,.83,1.26,2.1,2.1,0,0,0,.32.34.47.47,0,0,1,.19.34,1.25,1.25,0,0,1,.64.25l.63.42v.67c-.17,0-.38.17-.63.5-.09,0-.25.11-.51.34a1.07,1.07,0,0,1-.64.34,10,10,0,0,1,0,3.19,3.62,3.62,0,0,1-.13.67,2.09,2.09,0,0,1-.25.67H233c-.34,0-.51-.22-.51-.67v-2.52a12,12,0,0,0-.19-1.68,10.22,10.22,0,0,0-.32-1.51c0-.45-.17-.67-.51-.67l-.76.67v7l-.89,1.34-1.27-2a.56.56,0,0,1-.13.34l-.25.34a4.92,4.92,0,0,0-.57,1.26,4.83,4.83,0,0,0-.32,1.26,13.19,13.19,0,0,1-.38,1.93q-.38,1.6-.38,1.76a7.11,7.11,0,0,0-.44.76,2.14,2.14,0,0,1-.57.75h-1.14a.56.56,0,0,0,.25.5l.25.5.13.5a1.82,1.82,0,0,1-.06.42,1.71,1.71,0,0,0-.06.42,2.45,2.45,0,0,1-.13.59,2.42,2.42,0,0,0-.13.59,2.66,2.66,0,0,0-.13,1.59c.08.84.13,1.37.13,1.59a6.18,6.18,0,0,0-.64.5,1.77,1.77,0,0,0-.51.67h-.76a10.07,10.07,0,0,0-.89-.84,7.93,7.93,0,0,1-1-1,.81.81,0,0,1-.38-.17c-.17-.11-.25-.22-.25-.34v1.17a5.72,5.72,0,0,0,.25,1.26,4.53,4.53,0,0,0,.38,1.09,3.36,3.36,0,0,0,.19.76,3.43,3.43,0,0,1,.19.75,2.69,2.69,0,0,1-.38.67,3.9,3.9,0,0,0-.38.59,2.89,2.89,0,0,1-.25.42,1,1,0,0,1-.64.84,11.49,11.49,0,0,1,.13,2.18,14.69,14.69,0,0,1-.13,2.35,3.4,3.4,0,0,1-.63,1l-.38.67a9.79,9.79,0,0,0-.32,1.26,7.62,7.62,0,0,0-.19,1.43h-1c-.17-.22-.49-.59-1-1.09a4.29,4.29,0,0,1-.83-1.09l-.32.84a2.49,2.49,0,0,0-.19.67,6.94,6.94,0,0,0-.25,1.34,13.28,13.28,0,0,0-.13,1.34l-.13.5v.34a.55.55,0,0,0,.13.34c0,.11.13.31.38.59s.42.48.51.59v1.34a2,2,0,0,1-.7.42,6.13,6.13,0,0,0-.83.42.83.83,0,0,0-.38.17c-.17.11-.25.23-.25.34v1l.25.34a1.43,1.43,0,0,0,.38.34,3.19,3.19,0,0,1,.44,1.09,5.92,5.92,0,0,1,.19.92q-.13.17-.7,1.26a5.93,5.93,0,0,0-.57,1.26,2.31,2.31,0,0,0,.32.75,2.41,2.41,0,0,1,.32.75,9.76,9.76,0,0,1-.25,1.51,14.19,14.19,0,0,1-.38,1.51,1,1,0,0,1-.44-.25,1,1,0,0,0-.57-.25h-.25l-.25-.17-.63.17a6.25,6.25,0,0,1-.19,1.17,3.61,3.61,0,0,1-.32,1,4,4,0,0,1-.25,1.09,3.91,3.91,0,0,0-.25,1.09v2.35c.08.23.27.67.57,1.34a4.43,4.43,0,0,1,.44,1.34v3.86a1,1,0,0,0,.32.67c.21.22.32.39.32.5s.34.14.76.08.68-.08.76-.08a4.88,4.88,0,0,0,1.46.34,3.09,3.09,0,0,1,1.33.34H217c0-.11.15-.31.44-.59a2.24,2.24,0,0,0,.57-.76,7.49,7.49,0,0,0,.51-1.17,5,5,0,0,0,.38-1.34c.08,0,.32-.25.7-.75a2.31,2.31,0,0,0,.57-1.09c0-.22-.17-.47-.51-.76a1.51,1.51,0,0,0-.76-.42c-.09-.11-.32-.17-.7-.17s-.62.06-.7.17a9.17,9.17,0,0,1,.19-1.34q.19-1,.32-1.51a.82.82,0,0,0,.38-.17l.51-.34h.13a.34.34,0,0,0,.25-.17l.25-.34v1.85a8.88,8.88,0,0,0,.83-.67,8.91,8.91,0,0,1,.83-.67,5,5,0,0,0,1.08-.25,4.71,4.71,0,0,1,1.21-.25v-1.34a13.33,13.33,0,0,0-.38-1.93,13.13,13.13,0,0,1-.38-1.93v-5c.08-.22.27-.67.57-1.34s.49-1.12.57-1.34a6.77,6.77,0,0,0-.13-.84,2.51,2.51,0,0,0-.25-.84,8.88,8.88,0,0,1-.64,1.17,2.9,2.9,0,0,0-.51,1.17,1.07,1.07,0,0,0-.38.42c-.09.17-.17.25-.25.25a.34.34,0,0,1-.25.17l-.25-.17a7.61,7.61,0,0,1,.19-1.26,3.87,3.87,0,0,1,.32-1.09,8.86,8.86,0,0,0,.25-1.68,4,4,0,0,1,.38-1.68l.13-.17.25-.34h.76L226,264v1.68c0,.23.17.45.51.67,0,.11.08.17.25.17a5.8,5.8,0,0,1,.25-1.26,5.87,5.87,0,0,0,.25-1.26c0-.11.15-.34.44-.67s.45-.56.45-.67v-.67a7.18,7.18,0,0,1-.25-.84l-.25-1v-.67q.38-.33,1.33-1.26a14.12,14.12,0,0,0,1.21-1.26c.08,0,.21-.11.38-.34a.56.56,0,0,0,.13-.34.38.38,0,0,0,.13-.5,1.86,1.86,0,0,1-.13-.67.45.45,0,0,0,.38-.17.22.22,0,0,0,.19-.08.22.22,0,0,1,.19-.08,3.47,3.47,0,0,0,.25.84l.25.67.25.34.25.34a1.53,1.53,0,0,0,.57-.34,1.54,1.54,0,0,1,.57-.34c-.09,0-.13.2-.13.59a1.42,1.42,0,0,0,.13.75,1.29,1.29,0,0,0,.32.59l.57.76c.17,0,.21,0,.13.08s0,.08.13.08a9.15,9.15,0,0,1,.13-1.17,3,3,0,0,1,.25-1,1.94,1.94,0,0,1,.7-.75l.83-.59q.12-.17.76,0a1.16,1.16,0,0,0,.89,0l.25-.34.38-.5h.38q.25.17.89.5a2.88,2.88,0,0,0,.76.34,12.64,12.64,0,0,0,1.91-.34q1.53-.33,2-.5l1,.08a1.88,1.88,0,0,0,1.08-.08,2.42,2.42,0,0,0,.83-.25,2.86,2.86,0,0,1,.7-.25l.58,0V241.64Zm-.47-27h.63l-.63.5Zm-2-21v.5l-.76-.5Zm-29.09,95.13h-.64v-.67h.64Zm.51-4.53c0,.45-.17.67-.51.67l-.64.17V281.8a4.46,4.46,0,0,0,.64.59c.34.28.51.53.51.75v.17a.4.4,0,0,0,.06.25.43.43,0,0,1,.06.25ZM215.4,281q-.38,0-.38-.5t.38-.5q.38,0,.38.5T215.4,281Zm4.83-32.89a.55.55,0,0,0,.13.34.34.34,0,0,0,.25.17l.13.5-.13.34-.25.34a.56.56,0,0,0-.13.34Zm-1-.59c0-.39.13-.59.38-.59s.51.2.51.59-.17.59-.51.59S219.22,247.88,219.22,247.49Zm1,11.83a3.86,3.86,0,0,0-.38.59,2.84,2.84,0,0,1-.25.42V259h.64Zm1.14-3h-.25a.61.61,0,0,1-.51-.17q-.38,0-.38-.5h1.14Zm1.4,4.53V259a.23.23,0,0,1,.19.08.22.22,0,0,0,.19.08.34.34,0,0,0,.25.17Q223.41,260.49,222.77,260.82Zm2.41-19.8h-1c.08,0,.13-.05.13-.17s0-.17.13-.17.13-.25.38-.42.38-.31.38-.42Zm2.54,17.28c-.25,0-.38-.22-.38-.67s.13-.67.38-.67.25.23.25.67S227.9,258.31,227.73,258.31Zm6.48-45.8c.17,0,.25.23.25.67s-.09.67-.25.67-.38-.22-.38-.67S234,212.5,234.21,212.5Zm-.51,19.8.25.34.25.34v.34c0,.11,0,.17.13.17h-.64Zm4.19,3.52v1l-.64,1q0,.34-.19,1.68t-.19,1.51c0,.23,0,.36-.13.42a.89.89,0,0,0-.25.42,2.08,2.08,0,0,1-.25.5h-2a.34.34,0,0,1-.25-.17l-.25-.34a3.12,3.12,0,0,1-.44-1.09,5.85,5.85,0,0,1-.19-.92v-2.52a10.41,10.41,0,0,0,1.72-1.85,16.1,16.1,0,0,0,1.46-2c.17,0,.32-.17.44-.5a2.45,2.45,0,0,0,.19-.67c.25,0,.38.23.38.67.08.23.19.56.32,1a3.07,3.07,0,0,0,.32.84Zm.13-21.31c0-.45.13-.67.38-.67s.38.23.38.67-.13.67-.38.67S238,215,238,214.52Zm.89,41.11h-.51V255h.51Zm.76-13.84a5.78,5.78,0,0,0-.25,1.26.45.45,0,0,1-.51.5v-2.85a1,1,0,0,1,.25-.5l.25-.34.25.34a1,1,0,0,1,.25.5A7.23,7.23,0,0,1,239.67,241.78Z" transform="translate(-156 -176.81)" style="fill:#00fff2;stroke:#233140;stroke-miterlimit:10"/></svg>